<svg version="1.1" id="Layer_1" xmlns="http://www.w3.org/2000/svg" xmlns:xlink="http://www.w3.org/1999/xlink" x="0px" y="0px"
	 viewBox="52.1 -120.1 405.9 370.4" style="enable-background:new 52.1 -120.1 405.9 370.4;" xml:space="preserve">
	<path class="st0" d="M302.5-34.3l0.3,1.1l0.9,0.7l0.8,0.4l2.5,1.8l1.4,1.7l-0.2,0.8l-0.1,0.5l-0.1,1l0.3,0.4l1.1,0l0.6,0.3l0.4,1
		l-0.1,0.6l0,1.1l-0.5,0.8l-0.6,0.3l-2.5,0.9l-1.6,0.3l-5.9-0.5l-0.7,0.3l-0.6,0.2l-0.4,0.3l-0.4-0.1l-0.5,0l-0.4-0.1l-1.3,0
		l-1.1,0.2l-0.4-0.1l-1.8,1.1L291-19l-0.3,0.8l-0.6,2.7l-0.9,2.4l-1.2,1.5l-1.4-0.2l-2.1-1.5l-0.7-0.4l-0.8-0.6l-1.5-0.4l-2.7-0.1
		l-0.5-0.2l-0.4-0.1l-0.5-0.4l-2.1-3.1l-1.6-1.4l-0.9-0.5l-0.7-0.9l-1.2-1.7l-0.5-0.8l-0.2-0.9l-0.3-0.2l-0.4-0.1L269-26v-0.5
		l-0.2-0.5v-1l-0.3-2.3l-0.9-2.1l0.3-0.6l0.3-0.5l0.6-0.3l0.5-0.2l0.4-0.3l0.1-0.4l0.2-0.4l0.4-0.4l0.3-1.1v-1.2l-0.2-0.9l-0.7-1.3
		l1-0.5l1-0.2l0.5-0.2l0.1-0.1l0.5,0.3l1.1,0.2l0.5,0.3l0.8,0.2l1.4,0.8l0.6-0.1h1.3l0.3,0.3l-0.7,0.7l0,0.5l0.2,0.4l0.5,0.2
		l0.7-0.4l0.7-1l1.9-1.4l0.7-1.4v-0.6l-0.1-0.5l0-0.9l0.1-0.8l0.2-0.5l0.4-0.6l0.1-0.5l0.3-0.4l0.1-0.5l1.5-1.1l0.8-0.7l0.8-0.4
		l0.8-0.3l0.7-0.1l0.8,1l0.4,0.3l0.4,0.9l0.4,1l0.2,0.9l0.7,1.6l0.6,0.3l1.9,0.8l0.5,0.3l0.9,0.2l0.1,0.5l-0.2,0.6l-0.3,0.4
		l-0.1,0.7l0.3,0.6v0.5l-0.1,0.3l-0.3,2.1l0.3,1.2l0.6,0.5l0.9,0.5l2.4,0.8l1.2,0.6l1-0.2L302.5-34.3z"/>
	<path class="st0" d="M327.7-72.2l0.2,0.9l0,1.4l-0.1,0.8l-0.3,0.6l-0.4,0.4l-0.7,0.3l-0.4,0.4l-1.1,0.9l-0.5,1l-2.5,1.8l-0.4,0.4
		l0.2,0.6l0.2,0.2l1,1.4l-0.7,1.7l0.2,0.5l-0.1,0.4L322-58l-2.1,0.9l-0.7,0l-0.9,0l-0.6-0.1l-0.5-0.2l-0.1-0.6l-0.4-0.3l-0.3-0.4
		l-1-0.5l-0.3,0.3l-0.4,0.3l-0.2,0.6l-0.7,0.5l-0.5,0.8l-0.7,0.3l-0.5-0.1l-0.7,0.1l-0.9-0.1l-1.1-0.2l-1.3-0.6l-1.4-0.4l-1.5-0.1
		l-1,0l-0.8-0.2l-0.7,0.3l-0.8,0l-1,0.6l-0.9,0.2l-0.6,0.2l-0.7-0.2l-0.8-0.2l-0.8-0.5l-0.5-0.1l-0.7-0.6l1.1-2.5l2.2-3.5l0.2-0.4
		l0.3-1l0.5-0.8l4.4-9.8l0.9-3.1l1.3,0.1l1.1-0.3l0.4-0.1l0.6,0.3l0.5,0.2l0.6,0.1l0.8,0l0.8,0.4l0.9,0.3l2,0.4l0.8,0.2l0.6,0.5
		l1.1,0.8l1.3,1.5l0.6,0l0.4,0.1l1-0.2l0.5,0.2l0.5,0.6l0.8,0.8l0.6,0.8l0.8,0.3l0.6,0.3l0.9-0.2l1.4-0.1L327.7-72.2z"/>
	<path class="st0" d="M288-11.6l0.4,1l-0.1,1l0.1,1.2l-0.1,1.6l0.3,2.2l0.8,2.2l0.6,2.5l-0.3,1.3L289,2.5l-3,0.7l-0.9,0.6l-0.3,0.9
		l0.6,1l1.6,1.9l0.6,0.5l-0.8,2.9l-0.4,0.3l-0.6,0.4l-0.7,0.9l-1.2,1l-7,3.4l-0.8,0.6l-1,0.2l-1.4,0.8l-1.3,1.1l-1.1,1.4l-0.9,1.6
		l-0.9,0.7l-1,0.1l-1.7-0.3l-1.2,0.5l-2.8,0.9l-4.9,0l-1.5,0.2l-1.1,0.3l-0.5,0l-0.4-0.4l-0.1-0.9l-0.4-0.6l-0.6-0.4l-0.9,0.3
		l-2.1,1.4l-0.9,0.8l-0.9,0.4l-1.5,0.3l-2.3-0.1l-1.9-0.9l-2.4,0.1l-2.1-0.1l-0.8,0.6l-1.2,0.6h-1l-0.8-0.8l-0.8-1.6l-1.1-0.9
		l-0.1-2.7l-0.1-0.4l-0.3-0.9l0.3-0.6l0.5-3.5l0.1-1.4l-0.1-0.6l-0.2-0.3l-0.3-0.2l-0.3-0.3l0.7-0.9l0.5-0.9l0.5-1.5l0.2-0.4
		l0.5-0.5l0.1-0.5l0.3-0.3l0.1-0.3l0.4-0.6l0.3-2l0.2-0.4l1.9-2.1l0.8-1.2l0.5-0.4l0.3-0.4l0.3-0.6l0.5-0.6l0.9,0.6l0.7,0.3l1,0.2
		l3.1-0.7l2.7,0.5l0.7,0.9l0.3,0.9l0.8,1l2.3,0.8l1.2,0l2.4,0.1l2.4,0.4l1.3-0.1l1.1-0.6l2.4-5.4l1.2-1.7l0.2-1.4l-0.3-0.8L262.1-8
		L261.4-9l-0.5-1.1l0-1.2l0.9-0.9l0.7-0.5l0.9-0.8l0.8-0.4l1-0.8l1-0.6l1.1-1l1.1-1.3l0.4-1.4l0-1.3l0.5-2.4l0.4-0.6l0.9-0.5
		l0.5,0.8l1.2,1.7l0.7,0.9l0.9,0.5l1.6,1.4l2.1,3.1l0.5,0.4l0.4,0.1l0.5,0.2l2.7,0.1l1.5,0.4l0.8,0.6l0.7,0.4l2.1,1.5L288-11.6z"/>
	<path class="st0" d="M283.6-46.8l-0.1,0.5l-0.3,0.4l-0.1,0.5l-0.4,0.6l-0.2,0.5l-0.1,0.8l0,0.9l0.1,0.5v0.6l-0.7,1.4l-1.9,1.4
		l-0.7,1l-0.7,0.4l-0.5-0.2l-0.2-0.4l0-0.5l0.7-0.7l-0.3-0.3h-1.3l-0.6,0.1l-1.4-0.8l-0.8-0.2l-0.5-0.3l-1.1-0.2l-0.5-0.3l0.3-0.4
		l0.5-0.2l1.3-0.4l0.8-0.4l0.4-0.1l0.4-0.2l0.4-0.4l0.3-0.3l0.4,0.1l0.2-0.1l0.6,0.1l0.5-0.3l0.6-0.1l0.4-0.2l0.7-0.4l0.7-0.9
		l0.6-0.3l0.6-0.8l0.7,0.2l0.4-0.1L283.6-46.8z"/>
	<path class="st0" d="M313.5-56.7l0.8,0.4l0.2,0.3l0.5,1l0,0.5l0.4,0.6l0.5,0.6l0.3,0.6l-0.6,1.8l0.2,0.4l0.3,0.5l0.2,0.5l0.4,0.4
		l0.2,0.6l-0.3,1.8l-0.6,1.1l-0.5,1.5v0.5l0.1,0.8l-0.1,0.9l-0.3,0.8l0.1,0.6l-0.1,0.7v0.6l0,0.6l0,0.4l0.1,0.5l0.2,0.4l-0.4,0.3
		l-0.6,0.2l-2.3-0.1l-0.6,0.1l-0.4,0.3l-0.5,0l-1.1-0.4l-0.4-0.3l-0.5-0.2l-0.5-0.1l-1-0.3l-0.2-0.4l0-0.5l-0.1-1l-0.5-0.4l-1.3-0.5
		l-0.6-0.1l-0.5,0.2l-0.3,0.9l-0.7,1.3l0,0.5l-0.1,0.7l0.1,0.5l0.2,1.2l-0.5,0.8l-1.8,1.1l-1,0.2l-1.2-0.6l-2.4-0.8l-0.9-0.5
		l-0.6-0.5l-0.3-1.2l0.3-2.1l0.1-0.3v-0.5l-0.3-0.6l0.1-0.7l0.3-0.4l0.2-0.6l-0.1-0.5l-0.9-0.2l-0.5-0.3l-1.9-0.8l-0.6-0.3l-0.7-1.6
		l-0.2-0.9l-0.4-1l-0.4-0.9l-0.4-0.3l-0.8-1l0.4-0.1l0.7-0.6l0.7-0.3l2.2-1.8l2.1-2.5l1.8-3.2l0.2-0.5l0.7,0.6l0.5,0.1l0.8,0.5
		l0.8,0.2l0.7,0.2l0.6-0.2l0.9-0.2l1-0.6l0.8,0l0.7-0.3l0.8,0.2l1,0l1.5,0.1l1.4,0.4l1.3,0.6l1.1,0.2l0.9,0.1l0.7-0.1l0.5,0.1
		L313.5-56.7z"/>
	<path class="st0" d="M352.2-18.5l1.2,2l0.6,1.2l1.3,2.1l0.9,1.9l0.3,1.3l0.9,0.5l0.3,1.1l0.8,0.8l0.3,0.9l0.5,0.3l1.2-0.3l0.9-0.4
		l0.6-0.4h0.8l1,0.3l0.7,0.3l0.9,0.2l1-0.2l1-0.1l0.8,0.2l-0.4,1.2l0,2.1l0.2,1.6l1,2.3l0.8,0.6l-0.2,1.3l0,1.4l-1.2,0.4l-6,1.1
		l-0.8,0.1l-0.9-0.2l-1.4,0.8l-0.3,6.4l-1.5,0.1l-1.1,0.9l-0.3,0.3l-0.1,0.4L356,16l0,0.5l-0.4,0.8l-0.1,0.5l0.1,0.4l0.2,0.2l0.4,0
		l0.4-0.2l0.6-0.6l0.3-0.2l0.4,0.1l0.3,0.3l0.6,1l0.4,0.3l0.8,0.4l0.2,0.2l0.2,0.5l0.1,0.4l0,0.5l1.1,1.8l-1.1,1.9l-1,1.1l0.3,3.1
		l-3.9,2.1l-3.4,0.9l-3.2,0.2l-2.4,0.7l-2,1.2l-2.3,3.1l-2.9,2.4l-3,1.4l-5.3-3.8l-1.6-1.4l-1.1-0.4l-1.2-1.1L327,33l0.4-1.1
		l0.1-1.2l-0.8-0.9l-0.7-1.1l-0.4-0.9l-0.7-0.8l-0.6-0.5l-0.1-1.2l0.1-0.9l0.5-0.5l0.6-1.7l-0.2-1.2l0.1-1.6l1.4-4.7l0.4-2.8
		l-0.8-1.5L323.3,8l-1-1.1l-1.2-0.5L320,6.1l-1.5,0.4l-1.1-0.1l-0.9-0.3l0.5-1.6l1.9-2.4l1-1.9l-0.3-1.6l-1.4-0.8l-3,1l-0.5-1.4
		L314-3.2l0.2-1.1l0.6-1.1l1.5-1l2.3-1.8l0.9-0.4l0.8-0.3l1.6,0l0.2-0.4l-0.6-1.4l-0.1-0.9l-0.5-0.9l0.4-1.3l0.6-0.8l0.8-0.6
		l0.1-0.3l-1.7-0.5l-2.7-1.9l-2.5-1l-2.6-2.6l-2.9-1.2l0-1.1l0.1-0.6l-0.4-1l-0.6-0.3l-1.1,0l-0.3-0.4l0.1-1l0.1-0.5l0.2-0.8
		l-1.4-1.7l-2.5-1.8l-0.8-0.4l-0.9-0.7l-0.3-1.1l0.5-0.8l-0.2-1.2l-0.1-0.5l0.1-0.7l0-0.5l0.7-1.3l0.3-0.9l0.5-0.2l0.6,0.1l1.3,0.5
		l0.5,0.4l0.1,1l0,0.5l0.2,0.4l1,0.3l0.5,0.1l0.5,0.2l0.4,0.3l1.1,0.4l0.5,0l0.4-0.3l0.6-0.1l2.3,0.1l0.6-0.2l0.4-0.3l-0.2-0.4
		l-0.1-0.5l0-0.4l0-0.6v-0.6l0.1-0.7l-0.1-0.6l0.3-0.8l0.1-0.9l-0.1-0.8V-44l0.5-1.5l0.6-1.1l0.3-1.8l-0.2-0.6l-0.4-0.4l-0.2-0.5
		l-0.3-0.5l-0.2-0.4l0.6-1.8l-0.3-0.6l-0.5-0.6l-0.4-0.6l0-0.5l-0.5-1l-0.2-0.3l-0.8-0.4l0.5-0.8l0.7-0.5l0.2-0.6l0.4-0.3l0.3-0.3
		l1,0.5l0.3,0.4l0.4,0.3l0.1,0.6l0.5,0.2l0.6,0.1l0.9,0l0.7,0L322-58l0.4-0.3l0.1-0.4l-0.2-0.5L323-61l0.9,1.3l0.5,0.8l0.3,0.9
		l0.2,0.9l0,0.6l0.3,0.3l0.6-0.1l0.3-0.3l0.5-0.1l0.3,0.5l0.9,2.2l1.7,3.2l0.4,1l-0.3,0.6l-1,1.6l0.1,0.8l0.6,0.6l2.9,0.7l0.9,0.7
		l0.6,1.1l0.1,1.4l-1.7,2.1l-0.3,1.1l2.7,7.4l1.7,2.6l0.4,1l0.2,0.9l0.7,0.6l1.7,0.4l1.7,0.1l1.3,0.4l2,2.1l2,3l0.4,0.8l0.9,0.6
		l1,0.4l1.6-0.2l0.8,0.1L352.2-18.5z"/>
	<path class="st0" d="M315.1-1.2L314,0.4l-4,2.9l-6.4,3.3l-1.3,1l-1,0.2l-4.5,2l-1,1.6l-1.1,1l-1.8,0.5l-1.9,0l-1.3-0.5l-1.3-0.3
		l-0.7-0.6l-0.9-0.5l0.8-2.9L287,7.6l-1.6-1.9l-0.6-1l0.3-0.9l0.9-0.6l3-0.7l0.8-1.1l0.3-1.3l-0.6-2.5l-0.8-2.2l-0.3-2.2l0.1-1.6
		l-0.1-1.2l0.1-1l-0.4-1l1.2-1.5l0.9-2.4l0.6-2.7L291-19l0.7-0.2l1.8-1.1l0.4,0.1l1.1-0.2l1.3,0l0.4,0.1l0.5,0l0.4,0.1l0.4-0.3
		l0.6-0.2l0.7-0.3l5.9,0.5l1.6-0.3l2.5-0.9l0.6-0.3l0.5-0.8l2.9,1.2l2.6,2.6l2.5,1l2.7,1.9l1.7,0.5l-0.1,0.3l-0.8,0.6l-0.6,0.8
		l-0.4,1.3l0.5,0.9l0.1,0.9l0.6,1.4l-0.2,0.4l-1.6,0l-0.8,0.3l-0.9,0.4l-2.3,1.8l-1.5,1l-0.6,1.1L314-3.2l0.7,0.7L315.1-1.2z"/>
	<path class="st0" d="M355.8-85l0.2,1.1l-0.2,0.9l0.3,5.2l0.6,0.8l1.1,0.8l0.8,0.2l1.6,0.6l0.3,1.2l-0.1,0.7l-0.2,0.8l0,0.6
		l-0.4,0.4l-0.2,0.5l0,0.5l0.2,0.5l0.6,0.3l1,1l0.7,0l3-2.4l0.7-0.9l0.5-0.7l0.7-0.6l1.5-0.1l4.4,1.8l0.3,0.5l0.2,1.2l0.3,0.5
		l-0.3,0.2l-0.3-0.1l-0.5,0l-0.5,0.2l-0.3,0.4v0.5l-0.5,1.7l-0.1,0.3l-0.3,0.2l-0.3,0.6l-1.5,1.1l-0.3,0.3l-0.2,0.3l0,1l0.5,0.9
		l1.3,1.8l0.3,1.4l0.5,1.5l-0.3,1.3l-0.6,0.9l-1.9,0.9l-0.1,0.8l0.3,1.3l1.9,4.1l-4.9-1.4l-0.8-0.5l-0.4-0.5l-0.5-0.4l-0.7-0.3
		l-0.8,0l-0.8,0.5l-0.8,0.8l-2.4,2.8l-0.3,0.3l-0.3,0.4l-1.6,2.1l-0.3,0.5l-0.1,0.6l0.1,0.6l-0.8,1.5l-0.3,0.1l-0.1-0.4l-0.3-0.6
		l-0.5-0.1l-1.3,0.4l-0.6-0.2l-0.5-0.1l-0.5-0.2l-0.4-0.3l-0.2-0.7l0.1-0.7l-0.1-1.1l0.3-1l-0.9-1.4l-0.5-1.1l-1.1-1.6l-0.1-0.5
		l0.1-0.3l-0.4-0.3l-0.8,0.1l-0.7,0.3l-1.1-0.2h-0.6l-0.3,0.2l-1.5-0.2l-0.6,0l-1.2-0.8l-0.5-0.4l0-0.6l-0.1-0.8l-0.7-0.7l-1.2-0.5
		l-1.3-0.9l-0.7-0.8l-0.6-1.2l-0.5-0.7l-0.8-0.8l-0.7,0l-0.3-0.3l-0.5-0.9l-0.5,0l-0.2,0l-0.6-0.7l-0.3,0l-1.7,0.1h-0.3l-0.4,0.4
		l-0.2-0.1l-0.4-0.5l-0.4-0.2h-0.4l-0.4,0.1l-1.8,0.8l-0.8,0.1l-1.3,0l-0.4-0.1L323-61l-1-1.4l-0.2-0.2l-0.2-0.6l0.4-0.4l2.5-1.8
		l0.5-1l1.1-0.9l0.4-0.4l0.7-0.3l0.4-0.4l0.3-0.6L328-70l0-1.4l-0.2-0.9l1.2-1.3l1.7-0.6l1.5-0.2l1.1-0.4l0.8-0.4l1.1-0.3l0.5-0.4
		l0.4-0.1l0.9-0.9l0.9-0.5l0.3-0.4l0.4-0.3l0.4,0l0.6-0.1l0.8-0.3l0.8-0.6l0.7-0.8l0.6-0.8l0.2-0.7l-0.2-0.6l-0.1-0.6l-0.4-0.3v-1.1
		l2.5,0.8l0.6,0.1l0.4-0.1l1.2-0.8l2.9-0.5l1.7-0.8l1.8-0.4l0.9-0.4l0.2,0.3l-0.4,0.3l0.5,0.8l0.3,0.1l1,0.1L355.8-85z"/>
	<path class="st0" d="M370.5-48.2l0.7,0.4l0.4,0.4l-0.2,1l-1.1,1.6l-2.2,2.2l-0.4,0.7l0.5,0.8l2.6,1.9l2.2,2.5l0.9,1.9l0.3,1.4
		l-1.1,0.9L372-32l-5.8,1.2l-2.3,0.1l-1.2-0.1l-1.1,0.1l-1.1,0.3l-1.6,1.5l-3.8,5.3l-1,1.8l-1,1.5l-0.5,0.9l-0.4,1l-1.4,0.1
		l-0.8-0.1l-1.6,0.2l-1-0.4l-0.9-0.6l-0.4-0.8l-2-3l-2-2.1l-1.3-0.4l-1.7-0.1l-1.7-0.4l-0.7-0.6l-0.2-0.9l-0.4-1l-1.7-2.6l-2.7-7.4
		l0.3-1.1l1.7-2.1l-0.1-1.4l-0.6-1.1l-0.9-0.7l-2.9-0.7l-0.6-0.6l-0.1-0.8l1-1.6l0.3-0.6l-0.4-1l-1.7-3.2l-0.9-2.2l-0.3-0.5
		l-0.5,0.1l-0.3,0.3l-0.6,0.1l-0.3-0.3l0-0.6l-0.2-0.9l-0.3-0.9l-0.5-0.8L323-61l0.4,0.2l0.4,0.1l1.3,0l0.8-0.1l1.8-0.8l0.4-0.1h0.4
		l0.4,0.2l0.4,0.5l0.2,0.1l0.4-0.4h0.3l1.7-0.1l0.3,0l0.6,0.7l0.2,0l0.5,0l0.5,0.9l0.3,0.3l0.7,0l0.8,0.8l0.5,0.7l0.6,1.2l0.7,0.8
		l1.3,0.9l1.2,0.5l0.7,0.7l0.1,0.8l0,0.6l0.5,0.4l1.2,0.8l0.6,0l1.5,0.2l0.3-0.2h0.6l1.1,0.2l0.7-0.3l0.8-0.1l0.4,0.3l-0.1,0.3
		l0.1,0.5l1.1,1.6l0.5,1.1l0.9,1.4l-0.3,1l0.1,1.1l-0.1,0.7l0.2,0.7l0.4,0.3l0.5,0.2l0.5,0.1l0.6,0.2l1.3-0.4l0.5,0.1l0.3,0.6
		l0.1,0.4l0.3-0.1l0.8-1.5l-0.1-0.6l0.1-0.6l0.3-0.5l1.6-2.1l0.3-0.4l0.3-0.3l2.4-2.8l0.8-0.8l0.8-0.5l0.8,0l0.7,0.3l0.5,0.4
		l0.4,0.5l0.8,0.5L370.5-48.2z"/>
	<path class="st0" d="M342-84.3v1.1l0.4,0.3l0.1,0.6l0.2,0.6l-0.2,0.7l-0.6,0.8l-0.7,0.8l-0.8,0.6l-0.8,0.3l-0.6,0.1l-0.4,0
		l-0.4,0.3l-0.3,0.4l-0.9,0.5l-0.9,0.9l-0.4,0.1l-0.5,0.4l-1.1,0.3l-0.8,0.4l-1.1,0.4l-1.5,0.2l-1.7,0.6l-1.2,1.3l-1-0.2l-1.4,0.1
		l-0.9,0.2l-0.6-0.3l-0.8-0.3l-0.6-0.8l-0.8-0.8l-0.5-0.6l-0.5-0.2l-1,0.2l-0.4-0.1l-0.6,0l-1.3-1.5l-1.1-0.8l-0.6-0.5l-0.8-0.2
		l-2-0.4l-0.9-0.3l-0.8-0.4l-0.8,0l-0.6-0.1l-0.5-0.2l-0.6-0.3l-0.4,0.1l-1.1,0.3l-1.3-0.1l0.9-3.2l3.7-9.8l0.1-0.5l0-0.6l0.1-0.3
		l0.4-1.1l0.4-1.4l0.1-0.5l0.3-0.4l0-0.2l0.1-1.2l0.2-0.6l0.2-0.4l0.4-0.4l0.7-0.1l1.9,0.3l0.3,0l0.6-0.6l0.6-0.4l0.4-0.1l0.3,0.1
		l0.4-0.2l0.5,0l0.5,0.1l0.4,0.2l1.2-0.8l0.3-0.3l0.8-0.9l0.4-0.3l0.4-0.2h0.2l0.4,0.2h0.2l0.1-0.4h0.2l0.2,0.6l0.2,0.5l0.3,0.5
		l0.4,0.4l-0.1,0.4l0.1,0.6l0.3,1.4l0.1,1.1l0.1,0.3l0.3,0.4l0.5,0l0.1,0.2l0,0.5l0.4,1.4l0.2,0.5l0.4,0.4l0.9,0.6l0.7,0.7l1.7,2.6
		l0.3,0.3l0.5,0.1l0.4,0.1l0.4,0.3l0.7,0.6l0.6,0.9l0.4,0.4l0.9,0.3l1.1,1.1l0.8,0.5l2.9,0.9L342-84.3z"/>
	<path class="st0" d="M270.3-24l-0.9,0.5l-0.4,0.6l-0.5,2.4l0,1.3l-0.4,1.4l-1.1,1.3l-1.1,1l-1,0.6l-1,0.8l-0.8,0.4l-0.9,0.8
		l-0.7,0.5l-0.9,0.9l0,1.2l0.5,1.1l0.7,1.1l2.3,1.4l0.3,0.8l-0.2,1.4l-1.2,1.7l-2.4,5.4l-1.1,0.6l-1.3,0.1l-2.4-0.4l-2.4-0.1l-1.2,0
		l-2.3-0.8l-0.8-1l-0.3-0.9l-0.7-0.9l-2.7-0.5l-3.1,0.7l-1-0.2L241.1-1l-0.9-0.6l1.9-2l0.4-0.9l0.2-1l0-0.4l0.1-0.3l0.8-1l0.3-0.7
		l0.2-0.8l0.1-2.6l-0.1-0.1l-0.4-0.2l-0.1-0.2l0-0.5l0.1-0.4l0.6-1.1l0.2-0.5l0-0.5l-0.2-0.4l-0.4-0.6l-0.1-0.4v-0.4l0.4-0.8l3-2.7
		l2.3-2.9l2-1.5l0.7-0.7l2.3-3.3l2.6-3l0.2-0.3v-0.9l0.2-0.3l1.7-2.1l0.4-0.1l0.2,0.2l0.2,0.1l0.5,0l0.4-0.1l0.8-0.4l0.7-0.6
		l1.2-1.6l0.7-0.6l0.9-0.4l2.8-0.7l2-0.9l0.7,1.3l0.2,0.9v1.2l-0.3,1.1l-0.4,0.4l-0.2,0.4l-0.1,0.4l-0.4,0.3l-0.5,0.2l-0.6,0.3
		l-0.3,0.5l-0.3,0.6l0.9,2.1l0.3,2.3v1l0.2,0.5v0.5l0.4,0.9l0.4,0.1l0.3,0.2L270.3-24z"/>
	<path class="st0" d="M168.7,178.8l-0.9,0.6l-1.4,1.6l-1.2,2.4l-0.8,1.9l-1.4,3l-1,1.7l-0.6,0.9l-1.6,1l-1.8,0.7l-2.1,1l-1.6,0.9
		l-2.2,0.9l-1.4,1l-1,1.4l-0.8,1.6l-1.1,2.4l-0.8,2.5l-0.4,1.6l-1.2,5.6l-0.4,3.2l-0.4,2.1l-0.6,2.6l-0.4,3.9v3.2l-0.4,1.8l-0.2,1.4
		l-1,1.6l-0.8,1.2l-1.4,1.6l-1.2,0.9l-0.4,0.9l-1.2,1.2l-1.2,1.8l-1,1.1l0.2,0.9l0.2,1.6l-0.6,1.6l-0.6,1.8l-1.6,2.3l-1.8,1.2
		l-2.7,0.2h-3.7l-2.9-0.2h-3.5l-3.1-0.4l-2.9-0.5l-3.5-0.2h-2.5l-3.1,0.4h-8l-3.1,0.3l-4.5,0.9l-1.3,0.2l0-0.6l0.9-3.4l0.1-1
		l-0.1-0.9l0.1-0.5l0.3-0.6l0.1-0.2l0-0.5l-0.4-0.5l0.1-0.3l0.1-0.7l0.4-0.9l0.2-1l0.2-0.5l2.1-4.6l0.8-0.8l0.4-0.9l0.6-0.5l0.3-0.8
		l0.2-0.3l0.5-0.2l0.2-0.2l0.3,0l0.3,0.2l0.2,0.3l2.2-0.9l0.4-0.3l0.4-0.5l0.3-0.6l0.7-2.7l0-0.4l0.2-0.3l1-1.1l0.3-0.3l0.3-1.5
		l0.1-1.9l0.1-0.5l0.2-0.8l0.2-0.4l0.4-0.6v-0.2l-0.1-0.3l0-0.4l0.2-0.6l0.1-0.1l0.5-0.1l0.5-0.1l0.7-0.6l0.7-0.8l0.2-0.4l0.1-0.5
		l0.1-0.5l0-0.5l-0.2-0.5l-0.4-0.1l-0.8,0.2l0.1-0.4l0.4-0.8l0.2-0.3l1-0.9l0.1-0.2l1.5-3.7l0.2-0.3l0.5-0.4l0.9-1.6l0.3-1.6
		l0.2-0.4l0.3-0.5l0.7-1.4l1-1.2l0.1-0.1l0.5-0.4l0.1-0.2l0.2-0.7l0.3-0.5l0.3-0.4l0.3-0.4l0.1-0.6l0.1-1l-0.1-0.4l-0.3-0.5
		l-0.1,0.2l0.1,0.3l-0.1,0.3l-0.1,0.2l-0.7,0.5l-0.5,0l-0.2,0l-0.3,0.3l-0.4,0.5l-0.3,0.8l-0.3,0.5l-0.1,0.4l-0.2,0.6l-0.2,0.3
		l-1,0.9l-0.3-0.2l0.1-0.4l0.5-0.6l0.1-0.3l0.8-1.5l1.3-1.8l0.1-0.4l0.6-0.8l1.5-1.3l0.7-0.2l0.9-0.6l0.3-0.3l0.7-0.1l0.5-0.4
		l0.4-0.5l0.3-0.5l0.9-1l0.6-0.9l0.8-0.6l0.3-0.3l0.2-0.4l0.2-0.3l1.9-1.6l1.1-1.3l1.4-2.3l0.5-0.6l0.7-0.6l0.4-0.2l0.4-0.2l0.4-0.1
		l0.9-0.1l0.4-0.3l0.7-0.5v-0.5l0.1-0.1l0.2,0.1l2.2,0.6l2.2,0.9l0.9,0.7l0.6,1l0.7,0.8l1,0.3l0.9,0l5.8-1.5l3.3-0.3l1.7,0.1
		l2.3,0.4l2.8,0.8l1.7,0.7l0.9,0.1l0.9-0.2l6.7-2.4l1.7-0.3l1.7-0.1l1.8,0.1L168.7,178.8z"/>
	<path class="st0" d="M336.3,41.2l-2.1,1.2l-1.7,1.4l-2.3,2.1l-2.2,1.5l-2,2.3l-1.4,2.9l-1.8,3.1l-2.2,2.9l-2,0.7l-1.7-0.7l-0.7-2.2
		l-2.6,0.3l-2.4,0.5h-5.6l-1.4,0.2l-2.7-6.4l-0.4-1.4l0.2-0.9l1.3-2.3l0.1-0.7l-0.8-0.3l-1.2-0.2l-0.6-0.9l-0.6-2.4l-0.1-1.1
		l0.6-1.8l0.4-0.8l-1.1-1.6l-1.6-1.3l-1.1-0.4l-1.7,0.4l-0.9,0.4l-0.7,1.3l-0.7,0.6l-1,0.2l-1.5,0l-1.3-0.5l-1.6-0.1l-0.9,0.9
		l-0.9,1.6l-0.6,1.3l-0.7,1.1l-2.2-0.4l-0.8-0.4h-0.7l-0.7-0.1l-1.8,0.3l-1.1,0.6l-0.9,0.7l-0.8,0.9h-3.3l-1,0.3l-0.6,1l-0.4,1.2
		l-0.8,0.8l-0.9,0.4l-1.1-0.6l-1.3,0l-1.7,0.3l-1.4,1l-3,0.1l-1.2-0.4l-1.4,0.1l-0.6,0.9l-0.3,0.8l0.1,0.8l0.3,0.5l-0.5,0.6
		l-0.2,0.6l0.1,0.7l0.1,4.4l0.3,1.4l0.6,1.3l0.1,0.8l-0.5,0.4l-0.7,0.2l-0.8,0.4l-2.8-1.3l-2.2,0.1l-2,0.6l-0.9,1.1l-0.6,1.1
		l-0.4-0.1l-0.4-0.5l-0.7,0l-1.8,0.4l-1.1,0.4l-1.2,0.1l-1-0.1l-1,0l-1.5,1.1l-1,0.2l-1-0.3l-1-0.4l-1.2,0.5l-0.5,0.7l-0.3,1
		l-0.9,1.1l-1.1-0.2l-1,0.3l-1,0.5l-1.5,1.5l-1,0.1l-0.8-0.5l-0.5-0.5l-0.6-0.2l-0.5-0.1l-1.4,0.1l-1.3-0.8l1.1-1.6l0.5-0.7l0.4-0.3
		l0.8-0.3L224,64l0.5-0.9l0.5-0.7l0.3-0.4l0.2-0.7l0.7-0.5l0.3-0.7l0.9-1.3l0.1-0.3l0.1-0.5l0.1-0.5l0.2-0.5l0.2-0.4l1-1l0.3-0.7
		l0.9-1.2l2.7-3l2.1-3.9l1.3-3.2l0.2-0.9l0.4-3.1l0.4-1.6l0.1-0.5l-0.1-0.6l-0.2-0.3l-0.3-0.2l-0.4-0.4l-0.2-0.4l-0.5-1.2l-0.2-0.8
		l-0.2-0.1l-0.5-0.1l-0.2-0.2l-0.4-0.6l-1.5-1.1h-0.4l-0.5-0.1l-0.3-0.3l0.1-1l0.4-0.9l0.5-0.9l0.4-0.8l0.1-0.5l0-0.3l-0.2-0.4
		l0.1-0.6l-0.1-2.2l1.1,0.9l0.8,1.6l0.8,0.8h1l1.2-0.6l0.8-0.6l2.1,0.1l2.4-0.1l1.9,0.9l2.3,0.1l1.5-0.3l0.9-0.4l0.9-0.8l2.1-1.4
		l0.9-0.3l0.6,0.4l0.4,0.6l0.1,0.9l0.4,0.4l0.5,0l1.1-0.3l1.5-0.2l4.9,0l2.8-0.9l1.2-0.5l1.7,0.3l1-0.1l0.9-0.7l0.9-1.6l1.1-1.4
		l1.3-1.1l1.4-0.8l1-0.2l0.8-0.6l7-3.4l1.2-1l0.7-0.9l0.6-0.4l0.4-0.3l0.9,0.5l0.7,0.6l1.3,0.3l1.3,0.5l1.9,0l1.8-0.5l1.1-1l1-1.6
		l4.5-2l1-0.2l1.3-1l6.4-3.3l4-2.9l1.1-1.6l3-1l1.4,0.8l0.3,1.6l-1,1.9L317,4.5l-0.5,1.6l0.9,0.3l1.1,0.1l1.5-0.4l1.1,0.3l1.2,0.5
		l1,1.1l3.1,2.3l0.8,1.5l-0.4,2.8l-1.4,4.7l-0.1,1.6l0.2,1.2l-0.6,1.7l-0.5,0.5l-0.1,0.9l0.1,1.2l0.6,0.5l0.7,0.8l0.4,0.9l0.7,1.1
		l0.8,0.9l-0.1,1.2L327,33l0.2,1.5l1.2,1.1l1.1,0.4l1.6,1.4L336.3,41.2z"/>
	<path class="st0" d="M186.9,143.5l-0.1,0.1l-0.4,1.7v1.2l-0.4,0.9l-0.6,2.4l-0.8,2.1l-0.6,2.9l-0.6,2.4l-0.8,3.8l-0.8,3.5l-1,3.3
		l-0.8,2.1l-0.6,1.2l-1.4,1.4l-1.2,0.9l-1.4,1.2l-1.6,1.2l-2.3,1.4l-1.8,1.2l-0.8,0.5l-2.4-0.5l-1.8-0.1l-1.7,0.1l-1.7,0.3l-6.7,2.4
		l-0.9,0.2l-0.9-0.1l-1.7-0.7l-2.8-0.8l-2.3-0.4l-1.7-0.1l-3.3,0.3l-5.8,1.5l-0.9,0l-1-0.3l-0.7-0.8l-0.6-1l-0.9-0.7l-2.2-0.9
		l-2.2-0.6l-0.2-0.1l0.3-0.5l0.5-0.6l0.5-0.4l0.5-0.3l0.4-0.3l0.3-0.5l0.2-1.5l0.5-1.4l0.2-1.1l0.3-0.7l0.1-0.3l-0.2-1.1l0.2-0.4
		l-0.2-0.1l0.1-0.3l0.2-0.8l-0.1-0.8l-0.2-0.5l-0.1-0.3l0-2.1l-0.2-0.6l0.6-2.7l0.2-0.4l0.6-2.4l0.9-1.4l0.5-0.4l0.6-1.6l0.1-1.1
		l0.3-0.5l0.1-0.8l0.8-2.2l1.5-2.3l0.6-1.1l0.1-0.3l0.1-0.5l0.3-1.1l0.2-0.3l-0.1-0.4l0.2-1.4l-0.3-1.1l0.2-0.5l0.3-1l1.1-1.5
		l0.2-0.2l1-0.2l1.1-0.6l1.7-1.7l0.3-0.4l0.2-0.4l0.2-0.3l0.5-0.2l2.3-0.3l0.4-0.2l2.1-1.2l3.7-2.8l2.5-1.7l1.2-1.4l1.2-2.6l0.4-1.3
		l0.4-1.9l0.6-1.4l0.6-3l0.4-0.9l1.7-2.6l-0.1-0.5l0.3-0.1l1.1-2.7l0.7-2.5l0-0.5l0.1-0.4l0.4-0.9l0.1-0.5l0.1-0.4l0.2-0.2l0.6-0.3
		l0.7-0.6l0.8-0.3l0.3-0.4l0.9-1.5l0.5-1.7l0.2-0.5l0.3-0.3L169,97l1.9-0.8l3.7-0.6l3,0.1l3.7-1.3l5.6-1l0.2-0.2l0.5-0.5l0.5-0.2
		l4.6-2.1l0,0.1l1.5,3.3l0.9,1.4l2.2,4.3l0.2,1.1l-2.6,1.2l-2.7,1.7l-0.3,0.1l-2.4,2.1l-2.2,3.2l-2.5,7.7l-2.2,5l-1,1.6l-3.6,3.9
		l-0.9,1.6l-0.7,1.8l-0.2,0.9l-0.1,1l0.1,0.9l0.3,0.8l1.3,3.8l1.1,5.7L186.9,143.5z"/>
	<path class="st0" d="M369.3,3.8l0-1.4l0.2-1.3l-0.8-0.6l-1-2.3l-0.2-1.6l0-2.1l0.4-1.2L367.1-7l-1,0.1l-1,0.2L364.3-7l-0.7-0.3
		l-1-0.3h-0.8l-0.6,0.4l-0.9,0.4l-1.2,0.3l-0.5-0.3l-0.3-0.9l-0.8-0.8l-0.3-1.1l-0.9-0.5l-0.3-1.3l-0.9-1.9l-1.3-2.1l-0.6-1.2
		l-1.2-2l0.4-1l0.5-0.9l1-1.5l1-1.8l3.8-5.3l1.6-1.5l1.1-0.3l1.1-0.1l1.2,0.1l2.3-0.1L372-32l1.1-0.6l1.1-0.9l-0.3-1.4l-0.9-1.9
		l-2.2-2.5l-2.6-1.9l-0.5-0.8l0.4-0.7l2.2-2.2l1.1-1.6l0.2-1l-0.4-0.4l-0.7-0.4l-1.9-4.1l-0.3-1.3l0.1-0.8l1.9-0.9l0.6-0.9l0.3-1.3
		l-0.5-1.5l-0.3-1.4l-1.3-1.8l-0.5-0.9l0-1l0.2-0.3l0.3-0.3l1.5-1.1l0.3-0.6l0.3-0.2l0.1-0.3l0.5-1.7v-0.5l0.3-0.4l0.5-0.2l0.5,0
		l0.3,0.1l0.3-0.2l-0.3-0.5l-0.2-1.2l-0.3-0.5l-4.4-1.8l-1.5,0.1l-0.7,0.6l-0.5,0.7l-0.7,0.9l-3,2.4l-0.7,0l-1-1l-0.6-0.3l-0.2-0.5
		l0-0.5l0.2-0.5l0.4-0.4l0-0.6l0.2-0.8l0.1-0.7l-0.3-1.2l-1.6-0.6l-0.8-0.2l-1.1-0.8l-0.6-0.8l-0.3-5.2l0.2-0.9l-0.2-1.1l0.7-0.1
		l0.5-0.2l0.2-0.4l0.2-0.7l0.5-0.5l0.5-0.2l0.5,0.1l0.4,0.3l0.9,0.8l0.4,0.3l1.5,0.2l0.5,0.3h0.8l0.8,0.3l1.1,0.1l0.9-0.2l2.5-1
		l0.4-0.3l1-1l0.4-0.1l0.4,0.2l0.3,0l0.7-0.7l0.8-2.1l0.5-0.8l0-0.3l0.1-0.2l0.2-0.1l0.2,0.1l0.1,0.2l-0.1,0.4l0.1,0.3l-0.2,0.8
		l0.3,1.1l-0.4,0.4l0.1,0.8l0.4,0.5l0.6-0.2l0.3,0.4l-0.2,0.2l-0.1,0.4l0,0.4l0.1,0.9l0.1,0.3l0.5,0.7l0.5,0.4l0.7,0.2l1.5,0.2
		l-0.9-0.8l-1.6-1.9l-0.3-0.5l0.1-0.2l0.3,0.2l1,1.1l0.2,0.3l1,1.1l0.9,0.5l1.1,0.4l2.1,0.3l0.9-0.1l0.5-0.1l0.4-0.2l0.4-0.5
		l0.4-0.3l0.4-0.1l2,0.8l0.5,0.1l0.5,0.2l0.5,0.3l0.6,0.2v1l0.2,0.7l0.4,0.5l0.6,0.3l0.8,0.6l0.6,0.6l0.7,0.5l0.9,0.1l0.3,0.2
		l0.1,0.7l0.1,0.3l0.3,0.4l1.1,0.7l0.7,0.7l2.2,1.4l0.4,0.4l-0.1,0.2l-0.3,0.2l-0.5,1.2l-1.1,1.7l-0.2,0.4l2.5,2.7l0.8,0.2l0.2,0.1
		l-2.2,2.8l0.8,1l0.5,1.2l1.5,4.7l0.1,0.7l-0.1,0.5l-1,4.2l-0.1,1.2l0.2,1.3l0.2,0.8v0.3l-0.2,0.4l-0.7,0.8l-0.1,0.4l0.1,0.4
		l0.3,0.2l0.7,0.3l0.4,0.3l0.2,0.3l0.9,2.3l0.1,0.9l-0.3,0.7l-0.3,0.5l-0.4,1.4l-0.3,0.6l-0.2,0.6v2.5l0.2,0.9l1.1,1l0.4,0.8
		l0.3,0.8l0.4,0.6l0.5,0.5l0.6,0.4l0.3,0.3l0.1,0.5v0.6l-0.1,0.8l-0.2,0.4l-0.1,0.2l-0.9,0.6l2.8,4.9l0.7,0.6l1.3,0.5l5.7,4.6
		l0.3,0.6l-1.2,1.4l-0.7,0.5l-0.8,0.3l-0.9,0.1l-0.3,0.2l-0.3,0.4l-0.2,0.4l-0.3,0.9L408-8.4l0,0.4l-0.1,0.2l-0.5,0.4l-0.1,0.1
		l0.1,0.4h0.4l0.8-0.3h0.4l0.4,0.1l0.3,0.3l0.1,0.5l-0.4,0.9L408.5-5l-8.2-0.4L386.7-6l-4.1-0.2l-3.7,1.1l-3.8,0.3l-1.2,0.7l1.4,3.9
		l0.9,2.5l-3.6,0.5L369.3,3.8z"/>
	<path class="st0" d="M304.1,57.3l-1.4,0.2l-3,0.9l-2.9,0.3l-1.7,1.7l-3.6-1.5l-2.3-0.2l-1.6,0.2l-2.3,1l-1.9,2l-2.3-0.1l-0.4,0.2
		l-0.5,0.1l-0.5,0l-0.9-0.2l-1,0l-0.7,0.3l-1.2,1.3l-0.3,0.2l-1,0.5l-1.2,1.2l-2.2,1.5l-1.9,1.8l-0.7,0.5l-2.3,1.1l-1.4,1l-1.3,1.4
		l-0.3,0.2l-0.7,0.3l-0.3,0.3l-0.7,1.3l-0.3,0.3l-0.9,0.5l-0.9,0.8l-2.6,1.5l-0.4,0.3l-0.2,0.5l-0.1,0.6v24.3h-2.8l0,0l0.1,1.1
		l0.6,2l0.2,1.7l-0.3,1.1l-0.3,1.4l0.1,1.3l0.5,1.4l0.4,1.4v1l-0.9,0.7l-1.9,0.4l-2.3,0.3h-1.7l-2.5-0.2l-1.6,0h-1.4l-1.2,0.2
		l-1.5,0.9l-1.7,1.4l-2.1,1.9l-1.2,1.2l-1.7,0.3h-1.7l-1.7-1l-1.1-0.5l-0.7,0l-1.1,0.7l-1.4,0.4H224l-2.1-1l-2.6-1.4l-1.5-0.8
		l-2.1-0.2l-2.1-0.5l-1.5,0.2h-1.9l-2.5,1l-2.1,0.7l-2.3,0.8l-2.6,0.6l0.6,2.1l0.9,1.2v1.4l-0.4,1.2l-1.3,1.2L199,131l-0.9,1.2
		l-0.8,1.7l-0.7,1l-1.1,1.5l-1,1.9l-0.3,1.2l-0.4,1.4l-0.7,0.4l-2.6,0.4l-1.6,0.5l-1.4,0.4l-0.5,0.8l-8,0.1l-1.1-5.7l-1.3-3.8
		l-0.3-0.8l-0.1-0.9l0.1-1l0.2-0.9l0.7-1.8l0.9-1.6l3.6-3.9l1-1.6l2.2-5l2.5-7.7l2.2-3.2l2.4-2.1l0.3-0.1l2.7-1.7l2.6-1.2l-0.2-1.1
		l-2.2-4.3l-0.9-1.4l-1.5-3.3l0-0.1l6.1-2.8l0.7-0.5l0.5-0.7l0.8-1.4l0.7-0.7l0.3-0.4l0.1-0.5l0.2-0.4l1.2-0.9l1-1.2l0.2-0.3
		l0.9-0.5l0.2-0.2l0.3-0.5l0.7-0.6l0.5-0.8l0.6-0.6l0.3-0.2l5.8-3.1l1.4-1l1.7-0.9l0.8-0.5l2.5-2.5l1.1-1.7l1.3,0.8l1.4-0.1l0.5,0.1
		l0.6,0.2l0.5,0.5l0.8,0.5l1-0.1l1.5-1.5l1-0.5l1-0.3l1.1,0.2l0.9-1.1l0.3-1l0.5-0.7l1.2-0.5l1,0.4l1,0.3l1-0.2l1.5-1.1l1,0l1,0.1
		l1.2-0.1l1.1-0.4l1.8-0.4l0.7,0l0.4,0.5l0.4,0.1l0.6-1.1l0.9-1.1l2-0.6l2.2-0.1l2.8,1.3l0.8-0.4l0.7-0.2l0.5-0.4l-0.1-0.8l-0.6-1.3
		l-0.3-1.4l-0.1-4.4l-0.1-0.7l0.2-0.6l0.5-0.6l-0.3-0.5l-0.1-0.8l0.3-0.8l0.6-0.9l1.4-0.1l1.2,0.4l3-0.1l1.4-1l1.7-0.3l1.3,0
		l1.1,0.6l0.9-0.4l0.8-0.8l0.4-1.2l0.6-1l1-0.3h3.3l0.8-0.9l0.9-0.7l1.1-0.6l1.8-0.3l0.7,0.1h0.7l0.8,0.4l2.2,0.4l0.7-1.1l0.6-1.3
		l0.9-1.6l0.9-0.9l1.6,0.1l1.3,0.5l1.5,0l1-0.2l0.7-0.6l0.7-1.3l0.9-0.4l1.7-0.4l1.1,0.4l1.6,1.3l1.1,1.6l-0.4,0.8l-0.6,1.8l0.1,1.1
		l0.6,2.4l0.6,0.9l1.2,0.2l0.8,0.3l-0.1,0.7l-1.3,2.3l-0.2,0.9l0.4,1.4L304.1,57.3z"/>


<path id="road" class="st2" d="M235.7,5.5l-1.9,19.8c0,0,1.2-1.5,1.5-2.3
	c1.8-4.6,1.3-17.5,1.3-17.5l6.9-1.7c0,0,4.4-7.8,5.2-8.8c2.4-2.6,7.6-11.6,7.6-11.6s-2-15.2,0.7-12.9c1.5,1.3,4.1,6.6,5.5,12.8
	c0.5,2.2,2,4.6,2.4,6.9c1.8,9.1,1,17.9,1,17.9"/>
<path id="desert" class="st2" d="M266,8c0,0,11.5-5.1,13.8-4.2c2.3,0.9,6.2,2.7,6.2,2.7
	s1.5,3.3,3,3c1.5-0.3,1,4,1,4l-4.1-3.2c0,0-2-4.2-3.7-3.8c-1.7,0.3-3.5-1.5-5.5-0.8s-4.3,1.2-6.1,1.7s-5,1-5,1"/>
<circle id="marrakesh" class="st3" cx="266" cy="8" r="1.5"/>
<circle id="jadida" class="st3" cx="256.5" cy="-29.6" r="1.5"/>
<circle id="farm" class="st3" cx="256" cy="-16.8" r="1.5"/>
<circle id="essouira" class="st3" cx="236.2" cy="5" r="1.5"/>
<circle id="insouam" class="st3" cx="233.2" cy="25.5" r="1.5"/>
<circle id="tents" class="st3" cx="290.1" cy="14.3" r="1.5"/>
<path class="camel" d="M285.7,24.1c0,0.2,0,0.3,0.1,0.5L286,25c0.1,0.3,0.1,0.6,0,0.9c0,0,0,0,0,0l-1.8-1.2c-0.5-0.4-0.9-0.3-1.1-0.2
	c-0.2,0.1-0.5,0.3-0.5,1l0,0.9c0,0,0,0,0,0l-0.7-0.5c-0.5-0.4-0.9-0.3-1.1-0.2c-0.2,0.1-0.5,0.3-0.5,1l-0.1,2.1c0,0,0,0.1,0,0.1
	c0,0.2,0,0.5,0,0.6c0,0,0,0,0,0c0,0.1,0,0.2,0,0.3c0,0,0,0,0,0c-0.3,0.4-0.3,0.9-0.1,1.4l0.5,1c0,0.1,0.1,0.1,0.2,0.1
	c0.1,0,0.1-0.2,0.1-0.3l-0.5-1c-0.1-0.2-0.1-0.5-0.1-0.7c0,0,0,0,0,0l0.3,0.6c0,0,0,0,0,0l0.9,2.2c0,0,0,0,0,0l1.1,1.6c0,0,0,0,0,0
	l0.1,0.3c0.1,0.2,0.4,0.3,0.6,0.2l1.1-0.6c0,0,0,0,0.1,0c0,0,0,0,0,0c0,0,0,0,0.1,0l1.1-0.6c0.2-0.1,0.2-0.3,0.1-0.5
	c-0.2-0.4-0.6-0.5-1-0.3l-0.3,0.2c0,0,0,0,0,0l-0.9-1.3c0,0,0,0,0,0c0-0.3,0.1-0.6,0.1-0.9c0,0,0,0,0,0c0.3-0.1,0.5-0.2,0.8-0.3
	c0.6-0.3,1.1-0.8,1.5-1.3c0,0,0,0,0,0l0.2,0.4c0,0,0,0,0,0l-0.6,1.8c-0.1,0.2,0,0.5,0.3,0.5l1.2,0.4c0.1,0,0.2,0,0.3,0l0,0
	c0.1,0,0.1-0.1,0.1-0.1c0,0,0,0,0,0l0,0.1c0.1,0.2,0.4,0.3,0.6,0.2l1.1-0.6c0.2-0.1,0.2-0.3,0.1-0.5c-0.2-0.4-0.6-0.5-1-0.3
	l-0.2,0.1c0,0,0,0,0,0l-0.5-1.5c0,0,0,0,0,0c0.1-0.7,0.1-1.3-0.1-2c0,0,0,0,0,0c0.9-1,1.3-2.4,1.1-3.7c0,0,0,0,0,0
	c0.4-0.2,0.6-0.7,0.4-1.1c-0.2-0.4-0.7-0.6-1.1-0.4l0,0l-0.3,0.2c0,0,0,0,0,0c-0.4-0.2-0.8-0.3-1.2-0.1l-0.3,0.3
	c-0.2,0.2-0.3,0.4-0.3,0.6L285.7,24.1z M283.3,32.1c0,0,0,0.1,0,0.1l1,1.5c0.1,0.1,0.2,0.1,0.2,0.1l0.4-0.2c0.2-0.1,0.4,0,0.5,0.1
	c0,0,0,0,0,0l-0.9,0.5c0,0,0,0,0,0c-0.1-0.2-0.3-0.3-0.5-0.4c0,0,0,0,0,0l-1.2-1.4c0,0,0,0,0,0l-0.1-0.2c0,0,0,0,0,0
	c0-0.3,0.1-0.6,0.1-0.8c0,0,0,0,0,0c0.2,0,0.4,0,0.6,0c0,0,0,0,0,0C283.3,31.5,283.3,31.8,283.3,32.1L283.3,32.1z M283.6,33.9
	C283.6,33.9,283.6,33.9,283.6,33.9l-0.3,0.1c0,0,0,0,0,0l-0.5-1.1c0,0,0,0,0,0L283.6,33.9z M287.2,32.3L286,32c0,0-0.1-0.1,0-0.1
	l0.5-1.4c0,0,0,0,0,0l0.2,0.5c0,0,0,0,0,0l-0.3,0.6c0,0,0,0.1,0,0.1c0,0.1,0.1,0.2,0.1,0.2l0.5,0.2c0.1,0,0.2,0.1,0.2,0.2
	C287.2,32.2,287.2,32.3,287.2,32.3L287.2,32.3z M286.8,31.5l0.1-0.2c0,0,0,0,0,0l0.1,0.2c0,0,0,0,0,0L286.8,31.5
	C286.8,31.5,286.8,31.5,286.8,31.5z M288.5,24.1l-0.1,0.1c-0.1,0-0.1,0.1-0.1,0.2c0.3,1.3-0.1,2.6-1,3.6c0,0-0.1,0.1,0,0.2
	c0.1,0.6,0.2,1.3,0.1,1.9c0,0,0,0,0,0c0,0,0,0.1,0,0.2l0.6,1.8c0,0.1,0.1,0.1,0.2,0.1c0,0,0.1,0,0.1,0l0.4-0.2
	c0.2-0.1,0.4,0,0.5,0.1c0,0,0,0,0,0l-1.1,0.6c0,0-0.1,0-0.1,0l-1.7-3.3c0-0.1-0.2-0.1-0.2-0.1l-0.1,0c0,0-0.1,0-0.1,0.1
	c-0.3,0.6-0.8,1.1-1.5,1.4c-0.5,0.3-1.1,0.4-1.8,0.4c0,0-0.1,0-0.1,0c0,0-0.1,0.1-0.1,0.1c0,0.5-0.1,1-0.1,1.5c0,0,0,0.1,0,0.1
	l0.8,1.7c0,0.1,0.1,0.1,0.2,0.1c0,0,0,0,0,0l0.4-0.2c0.2-0.1,0.4,0,0.5,0.1c0,0,0,0,0,0l-1.1,0.6c0,0-0.1,0-0.1,0l-0.1-0.3
	c0,0,0,0,0,0l-1.1-1.6c0,0,0,0,0,0l-0.9-2.1c0,0,0,0,0,0l-0.3-0.7c0,0,0,0,0,0c-0.1-0.1-0.2-0.4-0.2-0.5c0,0,0,0,0,0
	c0-0.1,0-0.4,0-0.6c0-0.1,0-0.1,0-0.1l0.1-2.1c0-0.3,0.1-0.6,0.3-0.7c0.2-0.1,0.5,0,0.7,0.2l1,0.7c0.1,0,0.2,0,0.2,0
	c0,0,0.1-0.1,0.1-0.1l0-1.2c0-0.3,0.1-0.6,0.3-0.7s0.5,0,0.7,0.2l1.8,1.2c0,0,0.1,0.1,0.1,0.1c0,0,0,0,0,0c0.1,0,0.2,0,0.2,0
	c0.3-0.4,0.4-1,0.2-1.4l-0.2-0.4c-0.2-0.4-0.1-0.9,0.3-1.1c0.3-0.2,0.7-0.1,0.9,0.1c0.1,0,0.1,0.1,0.2,0l0.4-0.2
	c0.2-0.1,0.5,0,0.6,0.2C288.8,23.6,288.7,23.9,288.5,24.1L288.5,24.1z"/>
<path class="camel" d="M294.6,19.4c0,0.1,0,0.3,0.1,0.4l0.2,0.3c0.1,0.2,0.1,0.5,0,0.7c0,0,0,0,0,0l-1.3-0.9c-0.4-0.3-0.7-0.2-0.9-0.1
	c-0.1,0.1-0.4,0.3-0.4,0.8l0,0.7c0,0,0,0,0,0l-0.6-0.4c-0.4-0.3-0.7-0.2-0.9-0.1c-0.1,0.1-0.4,0.3-0.4,0.8l-0.1,1.6c0,0,0,0.1,0,0.1
	c0,0.2,0,0.4,0,0.5c0,0,0,0,0,0c0,0.1,0,0.1,0,0.2c0,0,0,0,0,0c-0.2,0.3-0.2,0.7-0.1,1l0.4,0.7c0,0.1,0.1,0.1,0.2,0.1
	c0.1,0,0.1-0.1,0.1-0.2l-0.4-0.8c-0.1-0.2-0.1-0.4-0.1-0.5c0,0,0,0,0,0l0.2,0.5c0,0,0,0,0,0l0.7,1.6c0,0,0,0,0,0l0.8,1.2
	c0,0,0,0,0,0l0.1,0.2c0.1,0.2,0.3,0.2,0.4,0.1l0.9-0.4c0,0,0,0,0,0c0,0,0,0,0,0c0,0,0,0,0.1,0l0.9-0.4c0.1-0.1,0.2-0.2,0.1-0.3
	c-0.1-0.3-0.5-0.4-0.7-0.2l-0.2,0.1c0,0,0,0,0,0l-0.7-1c0,0,0,0,0,0c0-0.2,0-0.4,0-0.7c0,0,0,0,0,0c0.2-0.1,0.4-0.1,0.6-0.2
	c0.5-0.2,0.9-0.6,1.1-1c0,0,0,0,0,0l0.2,0.3c0,0,0,0,0,0l-0.4,1.4c-0.1,0.2,0,0.4,0.2,0.4l0.9,0.3c0.1,0,0.1,0,0.2,0l0,0
	c0,0,0.1-0.1,0.1-0.1c0,0,0,0,0,0l0,0.1c0.1,0.2,0.3,0.2,0.4,0.1l0.9-0.4c0.1-0.1,0.2-0.2,0.1-0.3c-0.1-0.3-0.5-0.4-0.7-0.2
	l-0.2,0.1c0,0,0,0,0,0l-0.4-1.1c0,0,0,0,0,0c0.1-0.5,0.1-1-0.1-1.5c0,0,0,0,0,0c0.7-0.8,1-1.8,0.8-2.8c0,0,0,0,0,0
	c0.3-0.2,0.4-0.5,0.3-0.9c-0.2-0.3-0.5-0.4-0.9-0.3l0,0l-0.3,0.1c0,0,0,0,0,0c-0.3-0.2-0.6-0.2-0.9-0.1l-0.2,0.2
	c-0.1,0.1-0.2,0.3-0.3,0.5L294.6,19.4z M292.7,25.5C292.7,25.5,292.7,25.6,292.7,25.5l0.8,1.3c0,0.1,0.1,0.1,0.2,0l0.3-0.2
	c0.1-0.1,0.3,0,0.3,0.1c0,0,0,0,0,0l-0.7,0.4c0,0,0,0,0,0c-0.1-0.1-0.2-0.2-0.4-0.3c0,0,0,0,0,0l-0.9-1.1c0,0,0,0,0,0l-0.1-0.2
	c0,0,0,0,0,0c0-0.2,0-0.4,0.1-0.6c0,0,0,0,0,0c0.1,0,0.3,0,0.4,0c0,0,0,0,0,0C292.8,25.1,292.7,25.3,292.7,25.5L292.7,25.5z
	 M293,26.9C293,26.9,293,26.9,293,26.9l-0.2,0.1c0,0,0,0,0,0l-0.4-0.8c0,0,0,0,0,0L293,26.9z M295.7,25.7l-0.9-0.3c0,0,0,0,0-0.1
	l0.4-1.1c0,0,0,0,0,0l0.2,0.4c0,0,0,0,0,0l-0.2,0.5c0,0,0,0,0,0.1c0,0.1,0,0.1,0.1,0.1l0.3,0.1c0.1,0,0.1,0.1,0.2,0.1
	C295.7,25.6,295.7,25.6,295.7,25.7L295.7,25.7z M295.4,25l0.1-0.1c0,0,0,0,0,0l0.1,0.2c0,0,0,0,0,0L295.4,25
	C295.4,25,295.4,25,295.4,25z M296.7,19.4L296.7,19.4c-0.1,0.1-0.2,0.1-0.2,0.2c0.2,1-0.1,2-0.8,2.8c0,0,0,0.1,0,0.1
	c0.1,0.5,0.1,1,0.1,1.5c0,0,0,0,0,0c0,0,0,0.1,0,0.1l0.5,1.3c0,0.1,0.1,0.1,0.1,0.1c0,0,0,0,0.1,0l0.3-0.2c0.1-0.1,0.3,0,0.3,0.1
	c0,0,0,0,0,0l-0.8,0.4c0,0-0.1,0-0.1,0l-1.3-2.5c0-0.1-0.1-0.1-0.2-0.1l-0.1,0c0,0,0,0-0.1,0.1c-0.3,0.5-0.6,0.8-1.1,1
	c-0.4,0.2-0.9,0.3-1.3,0.3c0,0-0.1,0-0.1,0c0,0,0,0.1,0,0.1c0,0.4-0.1,0.8-0.1,1.1c0,0,0,0.1,0,0.1l0.6,1.3c0,0.1,0.1,0.1,0.2,0.1
	c0,0,0,0,0,0l0.3-0.2c0.1-0.1,0.3,0,0.3,0.1c0,0,0,0,0,0l-0.8,0.4c0,0-0.1,0-0.1,0l-0.1-0.2c0,0,0,0,0,0l-0.8-1.2c0,0,0,0,0,0
	l-0.7-1.6c0,0,0,0,0,0l-0.3-0.5c0,0,0,0,0,0c0-0.1-0.1-0.3-0.1-0.4c0,0,0,0,0,0c0-0.1,0-0.3,0-0.4c0-0.1,0-0.1,0-0.1l0.1-1.6
	c0-0.3,0.1-0.5,0.2-0.5c0.1-0.1,0.4,0,0.6,0.1l0.8,0.5c0.1,0,0.1,0,0.2,0c0,0,0-0.1,0-0.1l0-0.9c0-0.3,0.1-0.5,0.2-0.5
	c0.1-0.1,0.4,0,0.6,0.1l1.3,0.9c0,0,0.1,0,0.1,0.1c0,0,0,0,0,0c0.1,0,0.1,0,0.2,0c0.3-0.3,0.3-0.7,0.1-1.1l-0.2-0.3
	c-0.2-0.3,0-0.7,0.3-0.8c0.2-0.1,0.5-0.1,0.7,0.1c0,0,0.1,0,0.2,0l0.3-0.2c0.2-0.1,0.4,0,0.5,0.1C296.9,19,296.9,19.3,296.7,19.4
	L296.7,19.4z"/>
<path class="camel" d="M306,13.2c0,0.2,0.1,0.4,0.1,0.5l0.2,0.5c0.1,0.3,0.1,0.6,0,0.9c0,0,0,0,0,0l-1.9-1.3c-0.6-0.4-1-0.3-1.2-0.2
	c-0.2,0.1-0.5,0.4-0.6,1.1l0,1c0,0,0,0,0,0l-0.8-0.5c-0.6-0.4-1-0.3-1.2-0.2s-0.5,0.4-0.6,1.1l-0.1,2.3c0,0,0,0.1,0,0.1
	c0,0.3,0,0.5,0,0.6c0,0,0,0,0,0c0,0.1,0,0.2,0,0.3c0,0,0,0,0,0c-0.3,0.4-0.3,1-0.1,1.5l0.5,1.1c0,0.1,0.2,0.1,0.3,0.1
	c0.1,0,0.1-0.2,0.1-0.3l-0.5-1.1c-0.1-0.2-0.1-0.5-0.1-0.8c0,0,0,0,0,0l0.3,0.7c0,0,0,0,0,0l0.9,2.3c0,0,0,0,0,0l1.2,1.8
	c0,0,0,0,0,0l0.1,0.3c0.1,0.2,0.4,0.3,0.6,0.2l1.2-0.6c0,0,0,0,0.1,0c0,0,0,0,0,0c0,0,0.1,0,0.1,0l1.2-0.6c0.2-0.1,0.3-0.3,0.2-0.5
	c-0.2-0.4-0.7-0.5-1-0.3l-0.3,0.2c0,0,0,0,0,0l-1-1.4c0,0,0,0,0,0c0-0.3,0.1-0.6,0.1-0.9c0,0,0,0,0,0c0.3-0.1,0.6-0.2,0.9-0.3
	c0.7-0.3,1.2-0.8,1.6-1.4c0,0,0,0,0,0l0.2,0.5c0,0,0,0,0,0l-0.6,1.9c-0.1,0.2,0.1,0.5,0.3,0.6l1.3,0.4c0.1,0,0.2,0,0.3,0v0
	c0.1,0,0.1-0.1,0.2-0.2c0,0,0,0,0,0l0,0.1c0.1,0.2,0.4,0.3,0.6,0.2l1.2-0.6c0.2-0.1,0.3-0.3,0.2-0.5c-0.2-0.4-0.7-0.5-1-0.3
	l-0.3,0.1c0,0,0,0,0,0l-0.6-1.6c0,0,0,0,0,0c0.1-0.7,0.1-1.4-0.1-2.2c0,0,0,0,0,0c1-1.1,1.4-2.6,1.1-4c0,0,0,0,0,0
	c0.4-0.2,0.6-0.8,0.4-1.2c-0.2-0.4-0.8-0.6-1.2-0.4v0l-0.4,0.2c0,0,0,0,0,0c-0.4-0.3-0.9-0.3-1.3-0.1l-0.3,0.3
	c-0.2,0.2-0.3,0.4-0.4,0.7L306,13.2z M303.4,21.8c0,0,0,0.1,0,0.1l1.1,1.7c0.1,0.1,0.2,0.1,0.3,0.1l0.5-0.2c0.2-0.1,0.4,0,0.5,0.1
	c0,0,0,0,0,0l-1,0.5c0,0,0,0,0,0c-0.1-0.2-0.3-0.3-0.5-0.4c0,0,0,0,0,0l-1.3-1.5c0,0,0,0,0,0l-0.1-0.3c0,0,0,0,0,0
	c0-0.3,0.1-0.6,0.1-0.9c0,0,0,0,0,0c0.2,0,0.4,0,0.6,0c0,0,0,0,0,0C303.5,21.3,303.5,21.6,303.4,21.8L303.4,21.8z M303.8,23.8
	C303.8,23.8,303.8,23.8,303.8,23.8l-0.3,0.2c0,0,0,0,0,0l-0.6-1.2c0,0,0,0,0,0L303.8,23.8z M307.6,22.1l-1.3-0.4c0,0-0.1-0.1,0-0.1
	l0.5-1.5c0,0,0,0,0,0l0.3,0.5c0,0,0,0,0,0l-0.3,0.7c0,0,0,0.1,0,0.1c0,0.1,0.1,0.2,0.1,0.2l0.5,0.2c0.1,0,0.2,0.1,0.2,0.2
	C307.7,22,307.7,22,307.6,22.1L307.6,22.1z M307.2,21.2l0.1-0.2c0,0,0,0,0,0l0.1,0.3c0,0,0,0,0,0L307.2,21.2
	C307.2,21.2,307.2,21.2,307.2,21.2z M309,13.2l-0.1,0.1c-0.1,0-0.1,0.1-0.1,0.2c0.3,1.4-0.1,2.8-1.1,3.9c0,0-0.1,0.1,0,0.2
	c0.2,0.7,0.2,1.4,0.1,2.1c0,0,0,0,0,0c0,0,0,0.1,0,0.2l0.7,1.9c0,0.1,0.1,0.1,0.2,0.1c0,0,0.1,0,0.1,0l0.5-0.2
	c0.2-0.1,0.4,0,0.5,0.1c0,0,0,0,0,0l-1.2,0.6c0,0-0.1,0-0.1,0l-1.8-3.5c0-0.1-0.2-0.1-0.3-0.1l-0.1,0.1c0,0-0.1,0-0.1,0.1
	c-0.4,0.6-0.9,1.2-1.6,1.5c-0.6,0.3-1.2,0.4-1.9,0.4c-0.1,0-0.1,0-0.1,0.1c0,0-0.1,0.1-0.1,0.1c0,0.5-0.1,1.1-0.2,1.6
	c0,0,0,0.1,0,0.1l0.9,1.8c0,0.1,0.1,0.1,0.2,0.1c0,0,0,0,0.1,0l0.5-0.2c0.2-0.1,0.4,0,0.5,0.1c0,0,0,0,0,0l-1.2,0.6c0,0-0.1,0-0.1,0
	l-0.2-0.3c0,0,0,0,0,0l-1.2-1.8c0,0,0,0,0,0l-0.9-2.3c0,0,0,0,0,0l-0.4-0.7c0,0,0,0,0,0c-0.1-0.1-0.2-0.4-0.2-0.6c0,0,0,0,0,0
	c0-0.1,0-0.4,0-0.6c0-0.1,0-0.1,0-0.2l0.1-2.3c0-0.4,0.1-0.6,0.3-0.7c0.2-0.1,0.5,0,0.8,0.2l1.1,0.7c0.1,0.1,0.2,0,0.3,0
	c0,0,0.1-0.1,0.1-0.1l0.1-1.3c0-0.4,0.1-0.6,0.3-0.7c0.2-0.1,0.5,0,0.8,0.2l1.9,1.3c0,0,0.1,0.1,0.1,0.1c0,0,0,0,0,0
	c0.1,0,0.2,0,0.2-0.1c0.4-0.4,0.4-1,0.2-1.5l-0.2-0.4c-0.2-0.4-0.1-1,0.4-1.2c0.3-0.2,0.7-0.1,1,0.1c0.1,0.1,0.1,0.1,0.2,0l0.5-0.2
	c0.2-0.1,0.6,0,0.7,0.2C309.4,12.8,309.3,13.1,309,13.2L309,13.2z"/>
<path class="camel" d="M315.6,11.6c0,0.1,0,0.3,0.1,0.4l0.2,0.3c0.1,0.2,0.1,0.5,0,0.7c0,0,0,0,0,0l-1.4-1c-0.4-0.3-0.8-0.2-0.9-0.1
	s-0.4,0.3-0.4,0.8l0,0.7c0,0,0,0,0,0l-0.6-0.4c-0.4-0.3-0.8-0.2-0.9-0.1c-0.2,0.1-0.4,0.3-0.4,0.8l-0.1,1.7c0,0,0,0.1,0,0.1
	c0,0.2,0,0.4,0,0.5c0,0,0,0,0,0c0,0.1,0,0.1,0,0.2c0,0,0,0,0,0c-0.2,0.3-0.2,0.8-0.1,1.1l0.4,0.8c0,0.1,0.1,0.1,0.2,0.1
	c0.1,0,0.1-0.1,0.1-0.2l-0.4-0.8c-0.1-0.2-0.1-0.4-0.1-0.6c0,0,0,0,0,0l0.3,0.5c0,0,0,0,0,0l0.7,1.8c0,0,0,0,0,0l0.9,1.3
	c0,0,0,0,0,0l0.1,0.2c0.1,0.2,0.3,0.2,0.5,0.2l0.9-0.5c0,0,0,0,0,0c0,0,0,0,0,0c0,0,0,0,0.1,0l0.9-0.5c0.1-0.1,0.2-0.2,0.1-0.4
	c-0.1-0.3-0.5-0.4-0.8-0.3l-0.2,0.1c0,0,0,0,0,0l-0.8-1.1c0,0,0,0,0,0c0-0.2,0-0.5,0-0.7c0,0,0,0,0,0c0.2-0.1,0.4-0.1,0.7-0.2
	c0.5-0.3,0.9-0.6,1.2-1.1c0,0,0,0,0,0l0.2,0.3c0,0,0,0,0,0l-0.5,1.5c-0.1,0.2,0,0.4,0.2,0.4l1,0.3c0.1,0,0.1,0,0.2,0l0,0
	c0.1,0,0.1-0.1,0.1-0.1c0,0,0,0,0,0l0,0.1c0.1,0.2,0.3,0.2,0.5,0.2l0.9-0.5c0.1-0.1,0.2-0.2,0.1-0.4c-0.1-0.3-0.5-0.4-0.8-0.3
	l-0.2,0.1c0,0,0,0,0,0l-0.4-1.2c0,0,0,0,0,0c0.1-0.5,0.1-1.1-0.1-1.6c0,0,0,0,0,0c0.7-0.8,1.1-2,0.9-3.1c0,0,0,0,0,0
	c0.3-0.2,0.5-0.6,0.3-0.9c-0.2-0.3-0.6-0.5-0.9-0.3v0l-0.3,0.1c0,0,0,0,0,0c-0.3-0.2-0.7-0.2-1-0.1l-0.2,0.2
	c-0.1,0.1-0.2,0.3-0.3,0.5L315.6,11.6z M313.6,18.1c0,0,0,0.1,0,0.1l0.9,1.3c0,0.1,0.1,0.1,0.2,0l0.4-0.2c0.1-0.1,0.3,0,0.4,0.1
	c0,0,0,0,0,0l-0.8,0.4c0,0,0,0,0,0c-0.1-0.2-0.2-0.3-0.4-0.3c0,0,0,0,0,0l-1-1.2c0,0,0,0,0,0l-0.1-0.2c0,0,0,0,0,0
	c0-0.2,0.1-0.5,0.1-0.7c0,0,0,0,0,0c0.2,0,0.3,0,0.5,0c0,0,0,0,0,0C313.7,17.7,313.6,17.9,313.6,18.1L313.6,18.1z M313.9,19.6
	C313.9,19.6,313.9,19.6,313.9,19.6l-0.2,0.1c0,0,0,0,0,0l-0.4-0.9c0,0,0,0,0,0L313.9,19.6z M316.8,18.3l-1-0.3c0,0,0,0,0-0.1
	l0.4-1.2c0,0,0,0,0,0l0.2,0.4c0,0,0,0,0,0l-0.2,0.5c0,0,0,0,0,0.1c0,0.1,0,0.1,0.1,0.1l0.4,0.1c0.1,0,0.1,0.1,0.2,0.1
	C316.8,18.2,316.8,18.3,316.8,18.3L316.8,18.3z M316.5,17.6l0.1-0.1c0,0,0,0,0,0l0.1,0.2c0,0,0,0,0,0L316.5,17.6
	C316.5,17.6,316.5,17.6,316.5,17.6z M317.9,11.5L317.9,11.5c-0.1,0.1-0.2,0.1-0.2,0.2c0.2,1.1-0.1,2.2-0.8,3c0,0,0,0.1,0,0.1
	c0.1,0.5,0.1,1,0.1,1.6c0,0,0,0,0,0c0,0,0,0.1,0,0.1l0.5,1.4c0,0.1,0.1,0.1,0.1,0.1c0,0,0,0,0.1,0l0.4-0.2c0.1-0.1,0.3,0,0.4,0.1
	c0,0,0,0,0,0l-0.9,0.5c0,0-0.1,0-0.1,0l-1.4-2.7c0-0.1-0.1-0.1-0.2-0.1l-0.1,0c0,0,0,0-0.1,0.1c-0.3,0.5-0.7,0.9-1.2,1.1
	c-0.4,0.2-0.9,0.3-1.4,0.3c0,0-0.1,0-0.1,0c0,0,0,0.1,0,0.1c0,0.4-0.1,0.8-0.1,1.2c0,0,0,0.1,0,0.1l0.7,1.4c0,0.1,0.1,0.1,0.2,0.1
	c0,0,0,0,0,0l0.4-0.2c0.1-0.1,0.3,0,0.4,0.1c0,0,0,0,0,0l-0.9,0.5c0,0-0.1,0-0.1,0l-0.1-0.2c0,0,0,0,0,0l-0.9-1.3c0,0,0,0,0,0
	l-0.7-1.8c0,0,0,0,0,0l-0.3-0.5c0,0,0,0,0,0c0-0.1-0.1-0.3-0.1-0.4c0,0,0,0,0,0c0-0.1,0-0.3,0-0.5c0-0.1,0-0.1,0-0.1l0.1-1.7
	c0-0.3,0.1-0.5,0.3-0.6c0.2-0.1,0.4,0,0.6,0.1l0.8,0.6c0.1,0,0.1,0,0.2,0c0,0,0-0.1,0-0.1l0-1c0-0.3,0.1-0.5,0.3-0.6
	c0.2-0.1,0.4,0,0.6,0.1l1.4,1c0,0,0.1,0.1,0.1,0.1c0,0,0,0,0,0c0.1,0,0.1,0,0.2,0c0.3-0.3,0.3-0.8,0.1-1.2l-0.2-0.3
	c-0.2-0.3-0.1-0.7,0.3-0.9c0.2-0.1,0.6-0.1,0.8,0.1c0,0,0.1,0,0.2,0l0.3-0.2c0.2-0.1,0.4,0,0.5,0.2
	C318.2,11.2,318.1,11.4,317.9,11.5L317.9,11.5z"/>
<path class="camel" d="M305.6,25.6c0,0.1,0,0.2,0.1,0.3l0.1,0.3c0.1,0.2,0.1,0.4,0,0.5c0,0,0,0,0,0l-1.1-0.8c-0.3-0.2-0.6-0.2-0.7-0.1
	c-0.1,0.1-0.3,0.2-0.3,0.6l0,0.6c0,0,0,0,0,0l-0.5-0.3c-0.3-0.2-0.6-0.2-0.7-0.1s-0.3,0.2-0.3,0.6l-0.1,1.4c0,0,0,0,0,0.1
	c0,0.1,0,0.3,0,0.4c0,0,0,0,0,0c0,0.1,0,0.1,0,0.2c0,0,0,0,0,0c-0.2,0.3-0.2,0.6-0.1,0.9l0.3,0.6c0,0.1,0.1,0.1,0.2,0.1
	c0.1,0,0.1-0.1,0.1-0.2l-0.3-0.6c-0.1-0.1-0.1-0.3,0-0.5c0,0,0,0,0,0l0.2,0.4c0,0,0,0,0,0l0.5,1.4c0,0,0,0,0,0l0.7,1c0,0,0,0,0,0
	l0.1,0.2c0.1,0.1,0.2,0.2,0.4,0.1l0.7-0.4c0,0,0,0,0,0c0,0,0,0,0,0c0,0,0,0,0,0l0.7-0.4c0.1-0.1,0.1-0.2,0.1-0.3
	c-0.1-0.2-0.4-0.3-0.6-0.2l-0.2,0.1c0,0,0,0,0,0l-0.6-0.9c0,0,0,0,0,0c0-0.2,0-0.4,0-0.5c0,0,0,0,0,0c0.2,0,0.3-0.1,0.5-0.2
	c0.4-0.2,0.7-0.5,1-0.9c0,0,0,0,0,0l0.1,0.3c0,0,0,0,0,0l-0.4,1.1c0,0.1,0,0.3,0.2,0.3l0.8,0.3c0.1,0,0.1,0,0.2,0l0,0
	c0,0,0.1-0.1,0.1-0.1c0,0,0,0,0,0l0,0c0.1,0.1,0.2,0.2,0.4,0.1l0.7-0.4c0.1-0.1,0.1-0.2,0.1-0.3c-0.1-0.2-0.4-0.3-0.6-0.2l-0.2,0.1
	c0,0,0,0,0,0l-0.3-0.9c0,0,0,0,0,0c0.1-0.4,0-0.9,0-1.3c0,0,0,0,0,0c0.6-0.6,0.8-1.5,0.7-2.4c0,0,0,0,0,0c0.3-0.1,0.4-0.5,0.2-0.7
	c-0.1-0.3-0.5-0.4-0.7-0.2l0,0l-0.2,0.1c0,0,0,0,0,0c-0.2-0.2-0.5-0.2-0.8-0.1l-0.2,0.2c-0.1,0.1-0.2,0.2-0.2,0.4L305.6,25.6z
	 M304,30.7C304,30.7,304,30.7,304,30.7l0.7,1.1c0,0,0.1,0.1,0.1,0l0.3-0.1c0.1-0.1,0.2,0,0.3,0.1c0,0,0,0,0,0l-0.6,0.3c0,0,0,0,0,0
	c-0.1-0.1-0.2-0.2-0.3-0.2c0,0,0,0,0,0l-0.8-0.9c0,0,0,0,0,0l-0.1-0.2c0,0,0,0,0,0c0-0.2,0-0.4,0-0.5c0,0,0,0,0,0c0.1,0,0.2,0,0.4,0
	c0,0,0,0,0,0C304.1,30.3,304.1,30.5,304,30.7L304,30.7z M304.3,31.8C304.3,31.8,304.3,31.8,304.3,31.8l-0.2,0.1c0,0,0,0,0,0
	l-0.3-0.7c0,0,0,0,0,0L304.3,31.8z M306.5,30.8l-0.7-0.2c0,0,0,0,0-0.1l0.3-0.9c0,0,0,0,0,0l0.2,0.3c0,0,0,0,0,0l-0.2,0.4
	c0,0,0,0,0,0c0,0.1,0,0.1,0.1,0.1l0.3,0.1c0.1,0,0.1,0.1,0.1,0.1C306.5,30.7,306.5,30.8,306.5,30.8L306.5,30.8z M306.3,30.3l0.1-0.1
	c0,0,0,0,0,0l0.1,0.1c0,0,0,0,0,0L306.3,30.3C306.3,30.3,306.3,30.3,306.3,30.3z M307.3,25.6L307.3,25.6c-0.1,0.1-0.1,0.1-0.1,0.2
	c0.2,0.8-0.1,1.7-0.6,2.3c0,0,0,0.1,0,0.1c0.1,0.4,0.1,0.8,0.1,1.2c0,0,0,0,0,0c0,0,0,0.1,0,0.1l0.4,1.1c0,0,0.1,0.1,0.1,0.1
	c0,0,0,0,0,0l0.3-0.1c0.1-0.1,0.2,0,0.3,0.1c0,0,0,0,0,0l-0.7,0.4c0,0,0,0-0.1,0l-1.1-2.1c0-0.1-0.1-0.1-0.2-0.1l-0.1,0c0,0,0,0,0,0
	c-0.2,0.4-0.5,0.7-0.9,0.9c-0.3,0.2-0.7,0.3-1.1,0.2c0,0-0.1,0-0.1,0c0,0,0,0.1,0,0.1c0,0.3,0,0.6-0.1,0.9c0,0,0,0,0,0.1l0.5,1
	c0,0,0.1,0.1,0.1,0.1c0,0,0,0,0,0l0.3-0.1c0.1-0.1,0.2,0,0.3,0.1c0,0,0,0,0,0l-0.7,0.4c0,0,0,0-0.1,0l-0.1-0.2c0,0,0,0,0,0l-0.7-1
	c0,0,0,0,0,0l-0.5-1.4c0,0,0,0,0,0l-0.2-0.4c0,0,0,0,0,0c0-0.1-0.1-0.2-0.1-0.3c0,0,0,0,0,0c0-0.1,0-0.3,0-0.4c0,0,0-0.1,0-0.1
	l0.1-1.4c0-0.2,0.1-0.4,0.2-0.4c0.1-0.1,0.3,0,0.5,0.1l0.6,0.4c0,0,0.1,0,0.1,0c0,0,0-0.1,0-0.1l0-0.8c0-0.2,0.1-0.4,0.2-0.4
	s0.3,0,0.5,0.1l1.1,0.8c0,0,0.1,0,0.1,0.1c0,0,0,0,0,0c0.1,0,0.1,0,0.1,0c0.2-0.3,0.3-0.6,0.1-0.9l-0.1-0.3c-0.1-0.3,0-0.6,0.2-0.7
	c0.2-0.1,0.4-0.1,0.6,0.1c0,0,0.1,0,0.1,0l0.3-0.1c0.1-0.1,0.3,0,0.4,0.1C307.6,25.3,307.5,25.5,307.3,25.6L307.3,25.6z"/>
</svg>
