<svg height="299.9816398809524" version="1.1" width="288.7" xmlns="http://www.w3.org/2000/svg" style="overflow: hidden; position: relative; left: -0.15625px;" viewBox="0.2835446428571428 0.2835446428571428 288.7 299.9816398809524" preserveAspectRatio="xMinYMin"><rect x="-2015.01" y="-2093.7900000000004" width="5040" height="5236.950000000001" r="0" rx="0" ry="0" fill="#ffffff" stroke="none" transform="matrix(0.2864,0,0,0.2864,0,0)" stroke-width="3.491513682022861" style="-webkit-tap-highlight-color: rgba(0, 0, 0, 0); fill-opacity: 0;" fill-opacity="0"/><path fill="#88a4bc" stroke="#ffffff" d="M662.6,204.8L663.6,208L666.3000000000001,210.1L668.6,211.4L676.1,216.8L680.5,221.70000000000002L679.9,223.9L679.5,225.3L679.2,228.10000000000002L680.2,229.20000000000002L683.4000000000001,229.3L685.2,230.3L686.5,233.20000000000002L686.1,234.9L686.2,238L684.8000000000001,240.4L683.0000000000001,241.4L675.3000000000001,243.9L670.5000000000001,244.8L652.6000000000001,243.4L650.6000000000001,244.4L648.7000000000002,245L647.5000000000001,246L646.3000000000001,245.7L644.8000000000001,245.6L643.5000000000001,245.29999999999998L639.6000000000001,245.2L636.4000000000001,245.79999999999998L635.2,245.6L629.7,248.9L627.6,249.4L626.6,251.6L624.8000000000001,259.6L622.0000000000001,266.6L618.4000000000001,271.1L614.1000000000001,270.40000000000003L607.6000000000001,265.90000000000003L605.4000000000001,264.70000000000005L603.1000000000001,262.80000000000007L598.5000000000001,261.6000000000001L590.3000000000001,261.2000000000001L588.8000000000001,260.7000000000001L587.5000000000001,260.5000000000001L586.0000000000001,259.4000000000001L579.5000000000001,250.4000000000001L574.5000000000001,246.3000000000001L571.8000000000001,244.7000000000001L569.6,242.2000000000001L565.9,237.3000000000001L564.5,235.00000000000009L563.8,232.4000000000001L563,231.9000000000001L561.7,231.50000000000009L560.5,229.00000000000009L560.5,227.4000000000001L559.9,225.8000000000001L559.9,223.00000000000009L559.1,216.4000000000001L556.5,210.10000000000008L557.3,208.30000000000007L558.1999999999999,206.70000000000007L559.9,205.90000000000006L561.5,205.30000000000007L562.6,204.30000000000007L563,203.20000000000007L563.7,202.00000000000009L564.9000000000001,200.8000000000001L565.8000000000001,197.6000000000001L565.8000000000001,194.1000000000001L565.2,191.6000000000001L563.2,187.8000000000001L566.2,186.4000000000001L569.1,185.7000000000001L570.7,185.0000000000001L571,184.6000000000001L572.5,185.6000000000001L575.7,186.1000000000001L577.3000000000001,186.90000000000012L579.6,187.40000000000012L583.8000000000001,189.6000000000001L585.6,189.3000000000001L589.5,189.3000000000001L590.3,190.3000000000001L588.0999999999999,192.4000000000001L587.9999999999999,194.00000000000009L588.5999999999999,195.10000000000008L589.9999999999999,195.60000000000008L591.9999999999999,194.30000000000007L593.9999999999999,191.30000000000007L599.6999999999999,187.30000000000007L601.6999999999999,183.30000000000007L601.6999999999999,181.40000000000006L601.4999999999999,179.90000000000006L601.3999999999999,177.40000000000006L601.6999999999998,175.20000000000007L602.1999999999998,173.80000000000007L603.3999999999999,172.10000000000008L603.7999999999998,170.50000000000009L604.6999999999998,169.4000000000001L604.9999999999998,167.9000000000001L609.5999999999998,164.8000000000001L611.9999999999998,162.7000000000001L614.2999999999997,161.4000000000001L616.7999999999997,160.50000000000009L618.9999999999998,160.10000000000008L621.4999999999998,163.10000000000008L622.6999999999998,163.9000000000001L623.8999999999999,166.4000000000001L624.9999999999999,169.2000000000001L625.5999999999999,171.9000000000001L627.6999999999999,176.7000000000001L629.4999999999999,177.6000000000001L635.3999999999999,179.90000000000012L636.9999999999999,180.70000000000013L639.5999999999999,181.30000000000013L639.8999999999999,182.70000000000013L639.1999999999998,184.40000000000012L638.1999999999998,185.70000000000013L637.7999999999998,187.80000000000013L638.6999999999998,189.60000000000014L638.6999999999998,191.00000000000014L638.2999999999998,191.80000000000015L637.4999999999999,198.00000000000014L638.3999999999999,201.50000000000014L640.2999999999998,203.10000000000014L643.0999999999998,204.50000000000014L650.4999999999998,206.80000000000015L654.0999999999998,208.60000000000016L657.1999999999998,207.90000000000018L662.5999999999998,204.80000000000018Z" class="sm_state_MAR1449" opacity="1" stroke-opacity="1" stroke-width="1.8900000000000001" stroke-linejoin="round" transform="matrix(0.2864,0,0,0.2864,0,0)" style="-webkit-tap-highlight-color: rgba(0, 0, 0, 0); opacity: 1; cursor: pointer; stroke-opacity: 1; stroke-linejoin: round; fill-opacity: 1;" fill-opacity="1"/><path fill="#88a4bc" stroke="#ffffff" d="M739.3,93.5L740,96L740.1,100L739.7,102.3L738.9000000000001,104.2L737.6000000000001,105.4L735.6000000000001,106.2L734.4000000000001,107.5L731.0000000000001,110.2L729.4000000000001,113.10000000000001L721.9000000000001,118.50000000000001L720.6000000000001,119.80000000000001L721.3000000000002,121.70000000000002L721.9000000000002,122.30000000000001L725.0000000000002,126.50000000000001L722.8000000000002,131.60000000000002L723.3000000000002,133.00000000000003L723.1000000000001,134.30000000000004L721.9000000000001,135.20000000000005L715.5000000000001,137.90000000000003L713.3000000000001,137.80000000000004L710.7,137.90000000000003L708.8000000000001,137.60000000000002L707.3000000000001,137.00000000000003L706.9000000000001,135.30000000000004L705.7,134.40000000000003L704.9000000000001,133.20000000000005L702.0000000000001,131.70000000000005L701.2000000000002,132.50000000000006L700.1000000000001,133.40000000000006L699.4000000000001,135.10000000000005L697.4000000000001,136.50000000000006L695.9000000000001,138.90000000000006L693.9000000000001,139.80000000000007L692.5000000000001,139.60000000000008L690.5000000000001,139.9000000000001L687.7000000000002,139.60000000000008L684.4000000000002,138.9000000000001L680.4000000000002,137.00000000000009L676.1000000000003,135.8000000000001L671.5000000000002,135.4000000000001L668.4000000000002,135.50000000000009L666.1000000000003,135.00000000000009L663.9000000000002,135.8000000000001L661.5000000000002,135.7000000000001L658.6000000000003,137.4000000000001L656.0000000000002,137.9000000000001L654.1000000000003,138.60000000000008L652.1000000000003,137.9000000000001L649.6000000000003,137.4000000000001L647.3000000000003,136.00000000000009L645.8000000000003,135.8000000000001L643.6000000000003,133.9000000000001L647.1000000000003,126.50000000000009L653.9000000000002,116.20000000000009L654.6000000000003,114.90000000000009L655.6000000000003,111.90000000000009L657.0000000000002,109.6000000000001L670.5000000000002,81.00000000000009L673.2000000000003,71.80000000000008L677.2000000000003,72.10000000000008L680.4000000000003,71.30000000000008L681.7000000000003,71.10000000000008L683.4000000000003,72.10000000000008L684.9000000000003,72.70000000000007L686.8000000000003,73.10000000000008L689.1000000000003,73.20000000000007L691.4000000000002,74.50000000000007L694.0000000000002,75.30000000000007L700.1000000000003,76.50000000000007L702.4000000000002,77.20000000000007L704.1000000000003,78.60000000000008L707.6000000000003,81.00000000000009L711.7000000000003,85.40000000000009L713.4000000000003,85.50000000000009L714.7000000000003,85.80000000000008L717.6000000000003,85.10000000000008L719.2000000000003,85.60000000000008L720.6000000000003,87.40000000000008L723.1000000000003,89.70000000000007L725.0000000000002,91.90000000000008L727.5000000000002,92.70000000000007L729.4000000000002,93.60000000000008L732.0000000000002,93.10000000000008L736.3000000000002,92.80000000000008L739.3000000000002,93.50000000000009Z" class="sm_state_MAR1448" opacity="1" stroke-opacity="1" stroke-width="1.8900000000000001" stroke-linejoin="round" transform="matrix(0.2864,0,0,0.2864,0,0)" style="-webkit-tap-highlight-color: rgba(0, 0, 0, 0); opacity: 1; cursor: pointer; stroke-opacity: 1; stroke-linejoin: round; fill-opacity: 1;" fill-opacity="1"/><path fill="#88a4bc" stroke="#ffffff" d="M618.4,271.1L619.5,274.1L619.2,277L619.5,280.6L619.3,285.40000000000003L620.1999999999999,291.8L622.6999999999999,298.2L624.5999999999999,305.4L623.8,309.2L621.3,312.4L612.3,314.4L609.5,316.2L608.6,318.9L610.3000000000001,321.9L615.2,327.4L617,328.79999999999995L614.7,337.29999999999995L613.5,338.29999999999995L611.7,339.49999999999994L609.5,342.09999999999997L605.9,345.09999999999997L584.6,355.2L582.2,356.9L579.1,357.5L574.8000000000001,359.7L570.7,363L567.3000000000001,367L564.5000000000001,371.7L561.8000000000001,373.8L558.8000000000001,374L553.6,373.2L550,374.7L541.4,377.3L526.6,377.40000000000003L522.1,377.90000000000003L518.6,378.70000000000005L517,378.80000000000007L515.8,377.6000000000001L515.5,375.1000000000001L514.4,373.30000000000007L512.6999999999999,372.20000000000005L510.0999999999999,373.00000000000006L503.69999999999993,377.00000000000006L501.0999999999999,379.20000000000005L498.3999999999999,380.40000000000003L493.69999999999993,381.20000000000005L486.5999999999999,381.00000000000006L480.7999999999999,378.50000000000006L473.4999999999999,378.90000000000003L467.1999999999999,378.50000000000006L464.7999999999999,380.40000000000003L461.1999999999999,382.3L458.2999999999999,382.3L455.9999999999999,380L453.4999999999999,375.3L449.9999999999999,372.8L449.6999999999999,365L449.4999999999999,363.7L448.4999999999999,361.09999999999997L449.2999999999999,359.4L450.8999999999999,349L451.0999999999999,344.8L450.7999999999999,343.1L450.0999999999999,342.20000000000005L449.2999999999999,341.50000000000006L448.4999999999999,340.50000000000006L450.4999999999999,338.00000000000006L451.89999999999986,335.50000000000006L453.39999999999986,331.1000000000001L454.09999999999985,330.00000000000006L455.59999999999985,328.50000000000006L455.99999999999983,327.1000000000001L456.8999999999998,326.2000000000001L457.1999999999998,325.4000000000001L458.3999999999998,323.5000000000001L459.2999999999998,317.60000000000014L459.7999999999998,316.40000000000015L465.4999999999998,310.20000000000016L467.9999999999998,306.60000000000014L469.39999999999975,305.40000000000015L470.39999999999975,304.20000000000016L471.19999999999976,302.40000000000015L472.7999999999998,300.70000000000016L475.3999999999998,302.40000000000015L477.49999999999983,303.20000000000016L480.59999999999985,303.8000000000002L489.89999999999986,301.8000000000002L497.9999999999999,303.4000000000002L499.9999999999999,305.9000000000002L500.89999999999986,308.5000000000002L503.39999999999986,311.5000000000002L510.29999999999984,313.9000000000002L513.8999999999999,313.8000000000002L521.2999999999998,314.20000000000016L528.4999999999999,315.40000000000015L532.4999999999999,315.00000000000017L535.7999999999998,313.3000000000002L542.9999999999999,297.4000000000002L546.6999999999999,292.5000000000002L547.4,288.4000000000002L546.5,286.1000000000002L539.4,281.9000000000002L537.4,278.7000000000002L535.8,275.4000000000002L535.6999999999999,271.9000000000002L538.3,269.4000000000002L540.5,268.0000000000002L543.1,265.7000000000002L545.6,264.5000000000002L548.5,262.10000000000025L551.4,260.40000000000026L554.9,257.5000000000003L558.1999999999999,253.60000000000028L559.3,249.4000000000003L559.1999999999999,245.50000000000028L560.6999999999999,238.4000000000003L561.9,236.50000000000028L564.5,235.00000000000028L565.9,237.3000000000003L569.6,242.2000000000003L571.8000000000001,244.7000000000003L574.5000000000001,246.3000000000003L579.5000000000001,250.4000000000003L586.0000000000001,259.4000000000003L587.5000000000001,260.50000000000034L588.8000000000001,260.70000000000033L590.3000000000001,261.20000000000033L598.5000000000001,261.6000000000003L603.1000000000001,262.8000000000003L605.4000000000001,264.7000000000003L607.6000000000001,265.90000000000026L614.1000000000001,270.40000000000026L618.4000000000001,271.10000000000025Z" class="sm_state_MAR1456" opacity="1" stroke-opacity="1" stroke-width="1.8900000000000001" stroke-linejoin="round" transform="matrix(0.2864,0,0,0.2864,0,0)" style="-webkit-tap-highlight-color: rgba(0, 0, 0, 0); opacity: 1; cursor: pointer; stroke-opacity: 1; stroke-linejoin: round; fill-opacity: 1;" fill-opacity="1"/><path fill="#88a4bc" stroke="#ffffff" d="M605,167.9L604.7,169.4L603.8000000000001,170.5L603.4000000000001,172.1L602.2,173.79999999999998L601.7,175.2L601.4000000000001,177.39999999999998L601.5000000000001,179.89999999999998L601.7000000000002,181.39999999999998L601.7000000000002,183.29999999999998L599.7000000000002,187.29999999999998L594.0000000000001,191.29999999999998L592.0000000000001,194.29999999999998L590.0000000000001,195.6L588.6000000000001,195.1L588.0000000000001,194L588.1000000000001,192.4L590.3000000000002,190.3L589.5000000000002,189.3L585.6000000000003,189.3L583.8000000000003,189.60000000000002L579.6000000000003,187.40000000000003L577.3000000000003,186.90000000000003L575.7000000000003,186.10000000000002L572.5000000000002,185.60000000000002L571.0000000000002,184.60000000000002L572.0000000000002,183.3L573.6000000000003,182.60000000000002L577.7000000000003,181.3L580.2000000000003,180L581.4000000000003,179.7L582.5000000000003,179.1L583.6000000000004,177.79999999999998L584.6000000000004,176.79999999999998L585.9000000000003,177.1L586.6000000000004,176.7L588.5000000000003,177.1L590.1000000000004,176.2L592.0000000000003,175.89999999999998L593.3000000000003,175.29999999999998L595.3000000000003,173.99999999999997L597.4000000000003,171.29999999999998L599.2000000000003,170.39999999999998L600.9000000000003,168.2L603.0000000000003,168.79999999999998L604.3000000000003,168.39999999999998L605.0000000000003,167.89999999999998Z" class="sm_state_MAR1450" opacity="1" stroke-opacity="1" stroke-width="1.8900000000000001" stroke-linejoin="round" transform="matrix(0.2864,0,0,0.2864,0,0)" style="-webkit-tap-highlight-color: rgba(0, 0, 0, 0); opacity: 1; cursor: pointer; stroke-opacity: 1; stroke-linejoin: round; fill-opacity: 1;" fill-opacity="1"/><path fill="#88a4bc" stroke="#ffffff" d="M695.9,138.9L698.1999999999999,140.1L698.9,141.1L700.4,143.9L700.5,145.5L701.6,147.3L703,149.20000000000002L703.8,151.10000000000002L702.0999999999999,156.3L702.5999999999999,157.60000000000002L703.5999999999999,159.00000000000003L704.0999999999999,160.60000000000002L705.3,161.8L706,163.70000000000002L705,168.9L703.3,172L701.9,176.3L701.9,177.9L702.1,180.3L701.9,182.9L701,185.20000000000002L701.3,187.10000000000002L700.9,189.10000000000002L700.9,190.8L700.8,192.70000000000002L700.9,194.00000000000003L701.3,195.40000000000003L702,196.50000000000003L700.8,197.50000000000003L699,198.20000000000002L691.9,197.8L690.1,198.20000000000002L688.9,199.00000000000003L687.3,199.10000000000002L683.8,198.00000000000003L682.5999999999999,197.10000000000002L680.9999999999999,196.60000000000002L679.3999999999999,196.3L676.3999999999999,195.3L675.6999999999998,194.20000000000002L675.7999999999998,192.8L675.4999999999999,189.9L674.0999999999999,188.70000000000002L669.9999999999999,187.3L668.1999999999999,187.10000000000002L666.6999999999999,187.60000000000002L665.8,190.3L663.8,194.10000000000002L663.6999999999999,195.50000000000003L663.3,197.60000000000002L663.5999999999999,199.20000000000002L664.1999999999999,202.60000000000002L662.5999999999999,204.8L657.1999999999999,207.9L654.0999999999999,208.6L650.4999999999999,206.79999999999998L643.0999999999999,204.49999999999997L640.3,203.09999999999997L638.4,201.49999999999997L637.5,197.99999999999997L638.3,191.79999999999998L638.6999999999999,190.99999999999997L638.6999999999999,189.59999999999997L637.8,187.79999999999995L638.1999999999999,185.69999999999996L639.1999999999999,184.39999999999995L639.9,182.69999999999996L639.6,181.29999999999995L637,180.69999999999996L635.4,179.89999999999995L629.5,177.59999999999994L627.7,176.69999999999993L625.6,171.89999999999992L625,169.19999999999993L623.9,166.39999999999992L622.6999999999999,163.89999999999992L621.4999999999999,163.0999999999999L618.9999999999999,160.0999999999999L620.0999999999999,159.6999999999999L622.0999999999999,157.99999999999991L624.3,157.1999999999999L630.9,151.8999999999999L637.4,144.6999999999999L642.9,135.3999999999999L643.6,133.8999999999999L645.8000000000001,135.7999999999999L647.3000000000001,135.9999999999999L649.6,137.3999999999999L652.1,137.8999999999999L654.1,138.59999999999988L656,137.8999999999999L658.6,137.3999999999999L661.5,135.6999999999999L663.9,135.7999999999999L666.1,134.9999999999999L668.4,135.4999999999999L671.5,135.3999999999999L676.1,135.7999999999999L680.4,136.9999999999999L684.4,138.8999999999999L687.6999999999999,139.59999999999988L690.4999999999999,139.8999999999999L692.4999999999999,139.59999999999988L693.8999999999999,139.79999999999987L695.8999999999999,138.89999999999986Z" class="sm_state_MAR1451" opacity="1" stroke-opacity="1" stroke-width="1.8900000000000001" stroke-linejoin="round" transform="matrix(0.2864,0,0,0.2864,0,0)" style="-webkit-tap-highlight-color: rgba(0, 0, 0, 0); opacity: 1; cursor: pointer; stroke-opacity: 1; stroke-linejoin: round; fill-opacity: 1;" fill-opacity="1"/><path fill="#88a4bc" stroke="#ffffff" d="M813.7,251L817.5,256.9L819.2,260.29999999999995L823.3000000000001,266.4L826.0000000000001,271.9L826.9000000000001,275.7L829.5000000000001,277.3L830.3000000000001,280.40000000000003L832.6,282.70000000000005L833.4,285.40000000000003L835,286.3L838.6,285.5L841.3000000000001,284.2L843.1,283L845.6,283L848.6,283.8L850.7,284.7L853.5,285.4L856.4,284.79999999999995L859.3,284.59999999999997L861.8,285.29999999999995L860.5999999999999,288.9L860.4999999999999,295.09999999999997L861.0999999999999,299.79999999999995L864.0999999999999,306.59999999999997L866.5999999999999,308.49999999999994L866.0999999999999,312.29999999999995L865.9999999999999,316.29999999999995L862.3999999999999,317.4L844.1999999999998,320.7L841.7999999999998,320.9L839.1999999999998,320.29999999999995L834.8999999999999,322.59999999999997L833.9999999999999,341.49999999999994L829.3999999999999,341.79999999999995L825.9999999999999,344.29999999999995L825.1999999999999,345.29999999999995L824.9,346.59999999999997L825.3,352.2L825.1999999999999,353.8L823.9,356.1L823.5,357.5L823.7,358.8L824.4000000000001,359.40000000000003L825.5000000000001,359.50000000000006L826.6000000000001,359.00000000000006L828.4000000000001,357.30000000000007L829.3000000000001,356.80000000000007L830.4000000000001,357.1000000000001L831.3000000000001,358.00000000000006L833.0000000000001,360.80000000000007L834.1000000000001,361.80000000000007L836.4000000000001,362.9000000000001L837.1000000000001,363.6000000000001L837.7000000000002,365.00000000000006L838.0000000000001,366.30000000000007L838.1000000000001,367.70000000000005L841.5000000000001,373.1L838.0000000000001,378.70000000000005L834.9000000000001,381.80000000000007L835.8000000000001,390.9000000000001L824.0000000000001,397.0000000000001L813.5000000000001,399.5000000000001L803.9000000000001,400.10000000000014L796.5000000000001,402.10000000000014L790.4000000000001,405.60000000000014L783.4000000000001,414.70000000000016L774.7,421.8000000000002L765.5,425.9000000000002L749.3,414.9000000000002L744.3,410.8000000000002L741.0999999999999,409.50000000000017L737.4999999999999,406.40000000000015L736.9999999999999,401.90000000000015L738.1999999999999,398.8000000000001L738.4,395.2000000000001L736,392.5000000000001L733.8,389.3000000000001L732.6999999999999,386.60000000000014L730.5999999999999,384.20000000000016L728.6999999999999,382.70000000000016L728.4999999999999,379.3000000000002L728.7999999999998,376.70000000000016L730.3999999999999,375.10000000000014L732.2999999999998,370.0000000000001L731.7999999999998,366.4000000000001L732.1999999999998,361.80000000000007L736.5999999999998,347.9000000000001L737.8999999999997,339.80000000000007L735.3999999999997,335.30000000000007L725.8999999999997,328.6000000000001L722.8999999999997,325.4000000000001L719.0999999999998,324.0000000000001L715.8999999999997,323.2000000000001L711.2999999999997,324.4000000000001L707.8999999999997,324.2000000000001L705.2999999999997,323.2000000000001L706.6999999999997,318.4000000000001L712.3999999999997,311.4000000000001L715.4999999999998,305.9000000000001L714.4999999999998,301.2000000000001L710.0999999999998,298.9000000000001L700.8999999999997,301.80000000000007L699.4999999999998,297.80000000000007L697.4999999999998,295.70000000000005L697.9999999999998,292.40000000000003L699.8999999999997,289.1L704.4999999999998,286.20000000000005L711.3999999999997,280.80000000000007L713.9999999999998,279.6000000000001L716.4999999999998,278.7000000000001L721.4999999999998,278.6000000000001L721.9999999999998,277.30000000000007L720.0999999999998,273.1000000000001L719.6999999999998,270.6000000000001L718.2999999999998,267.9000000000001L719.4999999999999,264.2000000000001L721.3999999999999,262.0000000000001L723.6999999999998,260.10000000000014L723.8999999999999,259.10000000000014L718.5999999999999,257.60000000000014L710.4999999999999,252.10000000000014L702.7999999999998,249.10000000000014L694.9999999999999,241.60000000000014L686.1999999999999,238.00000000000014L686.0999999999999,234.90000000000015L686.4999999999999,233.20000000000016L685.1999999999999,230.30000000000015L683.4,229.30000000000015L680.1999999999999,229.20000000000016L679.1999999999999,228.10000000000016L679.4999999999999,225.30000000000015L679.8999999999999,223.90000000000015L680.4999999999999,221.70000000000016L676.0999999999999,216.80000000000015L668.5999999999999,211.40000000000015L666.3,210.10000000000014L663.5999999999999,208.00000000000014L662.5999999999999,204.80000000000015L664.1999999999999,202.60000000000016L663.5999999999999,199.20000000000016L663.3,197.60000000000016L663.6999999999999,195.50000000000017L663.8,194.10000000000016L665.8,190.30000000000015L666.6999999999999,187.60000000000016L668.1999999999999,187.10000000000016L669.9999999999999,187.30000000000015L674.0999999999999,188.70000000000016L675.4999999999999,189.90000000000015L675.7999999999998,192.80000000000015L675.6999999999998,194.20000000000016L676.3999999999999,195.30000000000015L679.3999999999999,196.30000000000015L680.9999999999999,196.60000000000016L682.5999999999999,197.10000000000016L683.8,198.00000000000017L687.3,199.10000000000016L688.9,199.00000000000017L690.1,198.20000000000016L691.9,197.80000000000015L699,198.20000000000016L700.8,197.50000000000017L702,196.50000000000017L701.3,195.40000000000018L700.9,194.00000000000017L700.8,192.70000000000016L700.9,190.80000000000015L700.9,189.10000000000016L701.3,187.10000000000016L701,185.20000000000016L701.9,182.90000000000015L702.1,180.30000000000015L701.9,177.90000000000015L701.9,176.30000000000015L703.3,172.00000000000014L705,168.90000000000015L706,163.70000000000016L705.3,161.80000000000015L704.0999999999999,160.60000000000016L703.5999999999999,159.00000000000017L702.5999999999999,157.60000000000016L702.0999999999999,156.30000000000015L703.8,151.10000000000016L703,149.20000000000016L701.6,147.30000000000015L700.5,145.50000000000014L700.4,143.90000000000015L698.9,141.10000000000014L698.1999999999999,140.10000000000014L695.9,138.90000000000015L697.4,136.50000000000014L699.4,135.10000000000014L700.1,133.40000000000015L701.2,132.50000000000014L702,131.70000000000013L704.9,133.20000000000013L705.6999999999999,134.40000000000012L706.9,135.30000000000013L707.3,137.0000000000001L708.8,137.6000000000001L710.6999999999999,137.90000000000012L713.3,137.80000000000013L715.5,137.90000000000012L721.9,135.20000000000013L723.1,134.30000000000013L723.3000000000001,133.0000000000001L722.8000000000001,131.6000000000001L725.0000000000001,126.50000000000011L727.6000000000001,130.40000000000012L729.2000000000002,132.80000000000013L730.0000000000001,135.40000000000012L730.5000000000001,138.1000000000001L730.6000000000001,140.0000000000001L731.6000000000001,140.90000000000012L733.3000000000002,140.70000000000013L734.3000000000002,139.90000000000012L735.7000000000002,139.5000000000001L736.6000000000001,141.1000000000001L739.2000000000002,147.6000000000001L744.5000000000001,157.0000000000001L745.7000000000002,160.0000000000001L744.8000000000002,161.80000000000013L741.7000000000002,166.60000000000014L741.9000000000002,168.90000000000015L743.8000000000002,170.80000000000015L752.7000000000002,172.80000000000015L755.4000000000002,174.90000000000015L757.2000000000002,178.20000000000016L757.6000000000001,182.20000000000016L752.5000000000001,188.30000000000015L751.6000000000001,191.50000000000014L759.7000000000002,213.10000000000014L764.9000000000002,220.80000000000013L766.0000000000002,223.80000000000013L766.5000000000002,226.30000000000013L768.7000000000003,228.20000000000013L773.8000000000003,229.50000000000014L778.9000000000003,229.90000000000015L782.8000000000003,231.20000000000016L788.8000000000003,237.30000000000015L794.9000000000003,246.00000000000014L796.2000000000003,248.40000000000015L798.9000000000003,250.20000000000016L802.0000000000003,251.40000000000015L807.0000000000003,250.90000000000015L809.4000000000003,251.30000000000015L813.7000000000003,251.00000000000014Z" class="sm_state_MAR1452" opacity="1" stroke-opacity="1" stroke-width="1.8900000000000001" stroke-linejoin="round" transform="matrix(0.2864,0,0,0.2864,0,0)" style="-webkit-tap-highlight-color: rgba(0, 0, 0, 0); opacity: 1; cursor: pointer; stroke-opacity: 1; stroke-linejoin: round; fill-opacity: 1;" fill-opacity="1"/><path fill="#88a4bc" stroke="#ffffff" d="M700.9,301.8L697.4,306.40000000000003L685.3,314.8L665.9,324.5L661.8,327.3L658.6999999999999,328L644.9,333.8L642,338.40000000000003L638.6,341.3L633.2,342.8L627.3000000000001,342.7L623.4000000000001,341.3L619.5000000000001,340.5L617.3000000000001,338.8L614.7,337.3L617,328.8L615.2,327.40000000000003L610.3000000000001,321.90000000000003L608.6,318.90000000000003L609.5,316.20000000000005L612.3,314.40000000000003L621.3,312.40000000000003L623.8,309.20000000000005L624.5999999999999,305.40000000000003L622.6999999999999,298.20000000000005L620.1999999999999,291.80000000000007L619.3,285.4000000000001L619.5,280.6000000000001L619.2,277.00000000000006L619.5,274.1000000000001L618.4,271.1000000000001L622,266.6000000000001L624.8,259.6000000000001L626.5999999999999,251.60000000000008L627.5999999999999,249.4000000000001L629.6999999999999,248.9000000000001L635.1999999999999,245.60000000000008L636.4,245.80000000000007L639.6,245.20000000000007L643.5,245.30000000000007L644.8,245.60000000000008L646.3,245.70000000000007L647.5,246.00000000000009L648.7,245.00000000000009L650.6,244.4000000000001L652.6,243.4000000000001L670.5,244.8000000000001L675.3,243.9000000000001L683,241.4000000000001L684.8,240.4000000000001L686.1999999999999,238.00000000000009L694.9999999999999,241.60000000000008L702.7999999999998,249.10000000000008L710.4999999999999,252.10000000000008L718.5999999999999,257.6000000000001L723.8999999999999,259.1000000000001L723.6999999999998,260.1000000000001L721.3999999999999,262.00000000000006L719.4999999999999,264.20000000000005L718.2999999999998,267.90000000000003L719.6999999999998,270.6L720.0999999999998,273.1L721.9999999999998,277.3L721.4999999999998,278.6L716.4999999999998,278.70000000000005L713.9999999999998,279.6L711.3999999999997,280.8L704.4999999999998,286.2L699.8999999999997,289.09999999999997L697.9999999999998,292.4L697.4999999999998,295.7L699.4999999999998,297.8L700.8999999999997,301.8Z" class="sm_state_MAR1453" opacity="1" stroke-opacity="1" stroke-width="1.8900000000000001" stroke-linejoin="round" transform="matrix(0.2864,0,0,0.2864,0,0)" style="-webkit-tap-highlight-color: rgba(0, 0, 0, 0); opacity: 1; cursor: pointer; stroke-opacity: 1; stroke-linejoin: round; fill-opacity: 1;" fill-opacity="1"/><path fill="#88a4bc" stroke="#ffffff" d="M824.8,56.1L825.3,59.4L824.5999999999999,62.1L825.4999999999999,77.2L827.2999999999998,79.5L830.4999999999999,81.7L832.9999999999999,82.3L837.8999999999999,84L838.8999999999999,87.4L838.6999999999998,89.5L838.1999999999998,91.7L838.0999999999998,93.4L836.9999999999998,94.60000000000001L836.4999999999998,96.00000000000001L836.5999999999998,97.50000000000001L837.1999999999998,99.10000000000001L838.9999999999998,100.00000000000001L842.0999999999998,102.90000000000002L844.1999999999998,102.80000000000003L853.3999999999999,95.70000000000003L855.4999999999999,93.10000000000004L856.8999999999999,91.10000000000004L859.0999999999999,89.20000000000003L863.6999999999999,88.90000000000003L876.9999999999999,94.20000000000003L877.9999999999999,95.80000000000003L878.4999999999999,99.20000000000003L879.2999999999998,100.80000000000003L878.4999999999999,101.50000000000003L877.4999999999999,101.20000000000003L876.0999999999999,101.10000000000004L874.4999999999999,101.60000000000004L873.5999999999999,102.70000000000003L873.5999999999999,104.10000000000004L872.0999999999999,109.20000000000003L871.8,110.10000000000004L870.8,110.70000000000003L870,112.40000000000003L865.4,115.50000000000003L864.5,116.50000000000003L864,117.40000000000003L863.9,120.20000000000003L865.3,122.90000000000003L869.1999999999999,128.20000000000005L870.1999999999999,132.40000000000003L871.8,136.70000000000005L870.9,140.50000000000006L869.1999999999999,143.10000000000005L863.4,145.80000000000004L863,148.00000000000003L864,151.80000000000004L869.7,163.90000000000003L854.7,159.90000000000003L852.3000000000001,158.40000000000003L851.1,156.90000000000003L849.5,155.60000000000002L847.4,154.8L845,154.70000000000002L842.5,156.10000000000002L840.1,158.3L832.9,166.4L831.9,167.3L831.1,168.4L826.3000000000001,174.5L825.4000000000001,176L825.1000000000001,177.8L825.4000000000001,179.70000000000002L823.0000000000001,184.10000000000002L822.1000000000001,184.3L821.7000000000002,183.10000000000002L820.8000000000002,181.40000000000003L819.4000000000002,181.20000000000005L815.3000000000002,182.50000000000006L813.5000000000002,181.90000000000006L811.9000000000002,181.60000000000005L810.4000000000002,180.90000000000006L809.1000000000003,179.90000000000006L808.5000000000002,177.90000000000006L808.9000000000002,175.80000000000007L808.6000000000003,172.60000000000008L809.6000000000003,169.60000000000008L806.9000000000002,165.4000000000001L805.3000000000002,162.2000000000001L802.0000000000002,157.5000000000001L801.7000000000003,155.90000000000012L802.1000000000003,154.90000000000012L800.8000000000003,154.1000000000001L798.4000000000003,154.40000000000012L796.2000000000003,155.30000000000013L792.9000000000003,154.80000000000013L791.2000000000003,154.80000000000013L790.3000000000003,155.40000000000012L785.7000000000003,154.80000000000013L783.9000000000003,154.90000000000012L780.2000000000003,152.6000000000001L778.7000000000003,151.3000000000001L778.8000000000003,149.4000000000001L778.4000000000003,147.10000000000008L776.4000000000003,145.00000000000009L772.8000000000003,143.60000000000008L768.7000000000003,141.10000000000008L766.7000000000003,138.80000000000007L764.9000000000003,135.30000000000007L763.3000000000003,133.20000000000007L761.0000000000003,131.00000000000009L759.0000000000003,131.10000000000008L758.1000000000004,130.30000000000007L756.7000000000004,127.70000000000007L755.2000000000004,127.80000000000007L754.7000000000004,127.70000000000007L752.8000000000004,125.70000000000007L751.8000000000004,125.60000000000008L746.6000000000004,125.80000000000008L745.6000000000004,125.80000000000008L744.5000000000003,126.90000000000008L743.9000000000003,126.50000000000007L742.7000000000003,124.90000000000008L741.5000000000002,124.30000000000008L740.3000000000002,124.30000000000008L739.1000000000001,124.60000000000008L733.5000000000001,127.00000000000009L731.2000000000002,127.40000000000009L727.3000000000002,127.3000000000001L726.1000000000001,127.1000000000001L725.0000000000001,126.5000000000001L721.9000000000001,122.3000000000001L721.3000000000001,121.7000000000001L720.6,119.8000000000001L721.9,118.5000000000001L729.4,113.1000000000001L731,110.20000000000009L734.4,107.50000000000009L735.6,106.20000000000009L737.6,105.40000000000009L738.9,104.20000000000009L739.6999999999999,102.30000000000008L740.0999999999999,100.00000000000009L739.9999999999999,96.00000000000009L739.2999999999998,93.50000000000009L743.0999999999998,89.60000000000008L748.2999999999998,87.70000000000007L752.8999999999999,87.10000000000008L756.0999999999999,85.80000000000008L758.4999999999999,84.50000000000009L761.6999999999999,83.70000000000009L763.1999999999999,82.40000000000009L764.4999999999999,82.00000000000009L767.0999999999999,79.50000000000009L769.8999999999999,77.90000000000009L770.8999999999999,76.8000000000001L772.0999999999999,75.90000000000009L773.3,75.8000000000001L775.1999999999999,75.5000000000001L777.4999999999999,74.7000000000001L779.8999999999999,72.8000000000001L782.0999999999999,70.40000000000009L783.9999999999999,68.00000000000009L784.6999999999999,65.90000000000009L783.9999999999999,64.1000000000001L783.7999999999998,62.200000000000095L782.6999999999998,61.3000000000001L782.6999999999998,58.100000000000094L790.1999999999998,60.3000000000001L791.9999999999998,60.5000000000001L793.1999999999998,60.1000000000001L796.7999999999998,57.800000000000104L805.4999999999999,56.300000000000104L810.6999999999999,53.900000000000105L816.0999999999999,52.800000000000104L818.6999999999999,51.50000000000011L819.3,52.400000000000105L818.0999999999999,53.300000000000104L819.6999999999999,55.6000000000001L820.5999999999999,56.0000000000001L823.5999999999999,56.2000000000001L824.8,56.1000000000001Z" class="sm_state_MAR1447" opacity="1" stroke-opacity="1" stroke-width="1.8900000000000001" stroke-linejoin="round" transform="matrix(0.2864,0,0,0.2864,0,0)" style="-webkit-tap-highlight-color: rgba(0, 0, 0, 0); opacity: 1; cursor: pointer; stroke-opacity: 1; stroke-linejoin: round; fill-opacity: 1;" fill-opacity="1"/><path fill="#88a4bc" stroke="#ffffff" d="M869.7,163.9L871.7,165L872.9000000000001,166.2L872.3000000000001,169L869.1,173.6L862.4,180L861.3,182L862.6999999999999,184.3L870.4999999999999,189.8L877.1999999999999,197.10000000000002L879.9,202.70000000000002L880.6999999999999,206.9L877.4999999999999,209.6L873.9999999999999,211.5L856.1999999999999,215L849.0999999999999,215.4L845.3999999999999,215L841.9999999999999,215.3L838.6999999999999,216.10000000000002L833.8,220.40000000000003L822.3,235.80000000000004L819.4,241.00000000000003L816.4,245.30000000000004L814.9,248.00000000000003L813.6999999999999,251.00000000000003L809.4,251.30000000000004L807,250.90000000000003L802,251.40000000000003L798.9,250.20000000000005L796.1999999999999,248.40000000000003L794.9,246.00000000000003L788.8,237.30000000000004L782.8,231.20000000000005L778.9,229.90000000000003L773.8,229.50000000000003L768.6999999999999,228.20000000000002L766.4999999999999,226.3L765.9999999999999,223.8L764.8999999999999,220.8L759.6999999999998,213.10000000000002L751.5999999999998,191.50000000000003L752.4999999999998,188.30000000000004L757.5999999999998,182.20000000000005L757.1999999999998,178.20000000000005L755.3999999999999,174.90000000000003L752.6999999999998,172.80000000000004L743.7999999999998,170.80000000000004L741.8999999999999,168.90000000000003L741.6999999999998,166.60000000000002L744.7999999999998,161.8L745.6999999999998,160L744.4999999999998,157L739.1999999999998,147.6L736.5999999999998,141.1L735.6999999999998,139.5L734.2999999999998,139.9L733.2999999999998,140.70000000000002L731.5999999999998,140.9L730.5999999999998,140L730.4999999999998,138.1L729.9999999999998,135.4L729.1999999999998,132.8L727.5999999999998,130.4L724.9999999999998,126.5L726.0999999999998,127.1L727.2999999999998,127.3L731.1999999999998,127.39999999999999L733.4999999999998,126.99999999999999L739.0999999999998,124.59999999999998L740.2999999999998,124.29999999999998L741.4999999999999,124.29999999999998L742.6999999999999,124.89999999999998L743.9,126.49999999999997L744.5,126.89999999999998L745.6,125.79999999999998L746.6,125.79999999999998L751.8000000000001,125.59999999999998L752.8000000000001,125.69999999999997L754.7,127.69999999999997L755.2,127.79999999999997L756.7,127.69999999999997L758.1,130.29999999999998L759,131.1L761,131L763.3,133.2L764.9,135.29999999999998L766.6999999999999,138.79999999999998L768.6999999999999,141.1L772.8,143.6L776.4,145L778.4,147.1L778.8,149.4L778.6999999999999,151.3L780.1999999999999,152.60000000000002L783.9,154.90000000000003L785.6999999999999,154.80000000000004L790.3,155.40000000000003L791.1999999999999,154.80000000000004L792.9,154.80000000000004L796.1999999999999,155.30000000000004L798.4,154.40000000000003L800.8,154.10000000000002L802.0999999999999,154.90000000000003L801.6999999999999,155.90000000000003L801.9999999999999,157.50000000000003L805.2999999999998,162.20000000000002L806.8999999999999,165.4L809.5999999999999,169.6L808.5999999999999,172.6L808.8999999999999,175.79999999999998L808.4999999999999,177.89999999999998L809.0999999999999,179.89999999999998L810.3999999999999,180.89999999999998L811.8999999999999,181.59999999999997L813.4999999999999,181.89999999999998L815.2999999999998,182.49999999999997L819.3999999999999,181.19999999999996L820.7999999999998,181.39999999999995L821.6999999999998,183.09999999999994L822.0999999999998,184.29999999999993L822.9999999999998,184.09999999999994L825.3999999999997,179.69999999999993L825.0999999999998,177.79999999999993L825.3999999999997,175.99999999999991L826.2999999999997,174.49999999999991L831.0999999999997,168.39999999999992L831.8999999999996,167.29999999999993L832.8999999999996,166.39999999999992L840.0999999999997,158.29999999999993L842.4999999999997,156.09999999999994L844.9999999999997,154.69999999999993L847.3999999999996,154.79999999999993L849.4999999999997,155.59999999999994L851.0999999999997,156.89999999999995L852.2999999999997,158.39999999999995L854.6999999999997,159.89999999999995L869.6999999999997,163.89999999999995Z" class="sm_state_MAR1446" opacity="1" stroke-opacity="1" stroke-width="1.8900000000000001" stroke-linejoin="round" transform="matrix(0.2864,0,0,0.2864,0,0)" style="-webkit-tap-highlight-color: rgba(0, 0, 0, 0); opacity: 1; cursor: pointer; stroke-opacity: 1; stroke-linejoin: round; fill-opacity: 1;" fill-opacity="1"/><path fill="#88a4bc" stroke="#ffffff" d="M782.7,58.1L782.7,61.300000000000004L783.8000000000001,62.2L784.0000000000001,64.10000000000001L784.7000000000002,65.9L784.0000000000001,68L782.1000000000001,70.4L779.9000000000001,72.80000000000001L777.5000000000001,74.70000000000002L775.2000000000002,75.50000000000001L773.3000000000002,75.80000000000001L772.1000000000001,75.9L770.9000000000001,76.80000000000001L769.9000000000001,77.9L767.1000000000001,79.5L764.5000000000001,82L763.2000000000002,82.4L761.7000000000002,83.7L758.5000000000001,84.5L756.1000000000001,85.8L752.9000000000001,87.1L748.3000000000001,87.69999999999999L743.1,89.6L739.3000000000001,93.5L736.3000000000001,92.8L732.0000000000001,93.1L729.4000000000001,93.6L727.5000000000001,92.69999999999999L725.0000000000001,91.89999999999999L723.1000000000001,89.69999999999999L720.6000000000001,87.39999999999999L719.2000000000002,85.6L717.6000000000001,85.1L714.7000000000002,85.8L713.4000000000002,85.5L711.7000000000002,85.4L707.6000000000001,81L704.1000000000001,78.6L702.4000000000001,77.19999999999999L700.1000000000001,76.49999999999999L694.0000000000001,75.29999999999998L691.4000000000001,74.49999999999999L689.1000000000001,73.19999999999999L686.8000000000002,73.1L684.9000000000002,72.69999999999999L683.4000000000002,72.1L681.7000000000002,71.1L680.4000000000002,71.3L677.2000000000002,72.1L673.2000000000002,71.8L675.9000000000002,62.4L687.3000000000002,33.599999999999994L687.6000000000001,32.099999999999994L687.7000000000002,30.199999999999996L688.0000000000001,29.199999999999996L689.3000000000001,26.099999999999994L690.6,21.999999999999993L690.9,20.599999999999994L691.8,19.399999999999995L691.9,18.699999999999996L692.3,15.099999999999996L692.8,13.299999999999995L693.3,12.099999999999996L694.5,10.799999999999995L696.7,10.499999999999995L702.4000000000001,11.299999999999995L703.2,11.199999999999996L704.9000000000001,9.499999999999996L706.8000000000001,8.299999999999997L707.9000000000001,7.999999999999997L708.7,8.399999999999997L709.8000000000001,7.899999999999997L711.3000000000001,7.799999999999997L712.7,8.199999999999998L713.8000000000001,8.899999999999997L717.5000000000001,6.699999999999997L718.5000000000001,5.699999999999997L720.8000000000001,3.0999999999999965L721.9000000000001,2.0999999999999965L723.2,1.4999999999999964L723.7,1.4999999999999964L724.8000000000001,2.1999999999999966L725.3000000000001,2.1999999999999966L725.7,0.9999999999999967L726.3000000000001,0.9999999999999967L726.9000000000001,2.7999999999999967L727.6000000000001,4.299999999999997L728.6000000000001,5.6999999999999975L729.9000000000001,6.999999999999997L729.6000000000001,8.099999999999998L729.8000000000002,9.999999999999998L730.8000000000002,13.999999999999998L731.1000000000001,17.299999999999997L731.3000000000002,18.199999999999996L732.2000000000002,19.399999999999995L733.6000000000001,19.299999999999994L734.0000000000001,19.899999999999995L733.9000000000001,21.499999999999996L735.0000000000001,25.599999999999994L735.6000000000001,27.199999999999996L736.9000000000001,28.399999999999995L739.6000000000001,30.299999999999994L741.8000000000002,32.39999999999999L747.1000000000001,39.99999999999999L748.0000000000001,40.79999999999999L749.6000000000001,40.99999999999999L750.7000000000002,41.39999999999999L751.9000000000002,42.29999999999999L754.0000000000002,44.19999999999999L755.8000000000002,46.69999999999999L756.9000000000002,47.89999999999999L759.6000000000003,48.79999999999999L763.0000000000002,52.09999999999999L765.5000000000002,53.499999999999986L774.4000000000002,56.19999999999999L782.7000000000002,58.09999999999999Z" class="sm_state_MAR1445" opacity="1" stroke-opacity="1" stroke-width="1.8900000000000001" stroke-linejoin="round" transform="matrix(0.2864,0,0,0.2864,0,0)" style="-webkit-tap-highlight-color: rgba(0, 0, 0, 0); opacity: 1; cursor: pointer; stroke-opacity: 1; stroke-linejoin: round; fill-opacity: 1;" fill-opacity="1"/><path fill="#88a4bc" stroke="#ffffff" d="M564.5,235L561.9,236.5L560.6999999999999,238.4L559.1999999999999,245.5L559.3,249.4L558.1999999999999,253.6L554.9,257.5L551.4,260.4L548.5,262.09999999999997L545.6,264.49999999999994L543.1,265.69999999999993L540.5,267.99999999999994L538.3,269.3999999999999L535.6999999999999,271.8999999999999L535.8,275.3999999999999L537.4,278.69999999999993L539.4,281.8999999999999L546.5,286.0999999999999L547.4,288.3999999999999L546.6999999999999,292.49999999999994L542.9999999999999,297.3999999999999L535.7999999999998,313.2999999999999L532.4999999999999,314.9999999999999L528.4999999999999,315.39999999999986L521.2999999999998,314.1999999999999L513.8999999999999,313.7999999999999L510.29999999999984,313.8999999999999L503.39999999999986,311.49999999999994L500.89999999999986,308.49999999999994L499.9999999999999,305.8999999999999L497.9999999999999,303.3999999999999L489.89999999999986,301.7999999999999L480.59999999999985,303.7999999999999L477.49999999999983,303.1999999999999L475.3999999999998,302.39999999999986L472.7999999999998,300.6999999999999L478.5999999999998,294.6999999999999L479.7999999999998,292.09999999999985L480.4999999999998,289.1999999999999L480.5999999999998,287.9999999999999L480.8999999999998,287.0999999999999L483.1999999999998,284.19999999999993L484.0999999999998,282.19999999999993L484.5999999999998,279.8999999999999L484.8999999999998,272.2999999999999L484.5999999999998,271.8999999999999L483.4999999999998,271.2999999999999L483.19999999999976,270.7999999999999L483.2999999999998,269.1999999999999L483.69999999999976,267.9999999999999L485.39999999999975,264.6999999999999L485.89999999999975,263.2999999999999L485.9999999999998,261.7999999999999L485.4999999999998,260.5999999999999L484.39999999999975,258.7999999999999L483.9999999999998,257.5999999999999L483.9999999999998,256.2999999999999L485.19999999999976,253.9999999999999L494.39999999999975,246.19999999999987L501.4999999999998,237.69999999999987L507.5999999999998,233.39999999999986L509.6999999999998,231.39999999999986L516.6999999999998,221.79999999999987L524.5999999999998,213.09999999999988L525.0999999999998,212.19999999999987L525.0999999999998,209.69999999999987L525.6999999999998,208.69999999999987L530.7999999999998,202.59999999999988L531.8999999999999,202.3999999999999L532.4999999999999,203.09999999999988L532.9999999999999,203.29999999999987L534.4999999999999,203.19999999999987L535.6999999999999,202.89999999999986L537.9999999999999,201.69999999999987L540.1999999999999,199.89999999999986L543.9,195.29999999999987L546.1,193.49999999999986L548.7,192.39999999999986L557.2,190.39999999999986L563.2,187.79999999999987L565.2,191.59999999999988L565.8000000000001,194.09999999999988L565.8000000000001,197.59999999999988L564.9000000000001,200.79999999999987L563.7,201.99999999999986L563,203.19999999999985L562.6,204.29999999999984L561.5,205.29999999999984L559.9,205.89999999999984L558.1999999999999,206.69999999999985L557.3,208.29999999999984L556.5,210.09999999999985L559.1,216.39999999999986L559.9,222.99999999999986L559.9,225.79999999999987L560.5,227.39999999999986L560.5,228.99999999999986L561.7,231.49999999999986L563,231.89999999999986L563.8,232.39999999999986L564.5,234.99999999999986Z" class="sm_state_MAR1457" opacity="1" stroke-opacity="1" stroke-width="1.8900000000000001" stroke-linejoin="round" transform="matrix(0.2864,0,0,0.2864,0,0)" style="-webkit-tap-highlight-color: rgba(0, 0, 0, 0); opacity: 1; cursor: pointer; stroke-opacity: 1; stroke-linejoin: round; fill-opacity: 1;" fill-opacity="1"/><path fill="#88a4bc" stroke="#ffffff" d="M255,829.3L252.3,831.0999999999999L247.9,835.8999999999999L244.1,842.7999999999998L241.6,848.2999999999998L237.29999999999998,857.0999999999998L234.2,861.9999999999998L232.29999999999998,864.5999999999998L227.29999999999998,867.3999999999997L221.7,869.3999999999997L215.39999999999998,872.1999999999997L210.39999999999998,874.8999999999997L203.59999999999997,877.5999999999998L199.19999999999996,880.3999999999997L196.09999999999997,884.3999999999997L193.59999999999997,889.1999999999997L190.39999999999998,896.0999999999997L187.89999999999998,903.4999999999997L186.7,908.2999999999996L182.89999999999998,924.5999999999996L181.7,934.0999999999996L180.39999999999998,940.1999999999996L178.59999999999997,947.6999999999996L177.29999999999995,959.1999999999996L177.29999999999995,968.5999999999996L176.09999999999997,973.9999999999995L175.39999999999998,978.0999999999996L172.29999999999998,982.7999999999996L169.79999999999998,986.1999999999996L165.49999999999997,990.8999999999996L161.69999999999996,993.5999999999997L160.49999999999997,996.2999999999997L156.69999999999996,999.6999999999997L152.99999999999997,1005.0999999999997L149.89999999999998,1008.3999999999996L150.49999999999997,1011.0999999999997L151.09999999999997,1015.7999999999997L149.19999999999996,1020.5999999999997L147.39999999999995,1025.8999999999996L142.39999999999995,1032.5999999999997L136.79999999999995,1035.9999999999998L128.59999999999997,1036.5999999999997L117.39999999999996,1036.5999999999997L108.59999999999997,1035.9999999999998L97.99999999999997,1035.9999999999998L88.69999999999997,1034.6999999999998L79.89999999999998,1033.2999999999997L69.29999999999998,1032.5999999999997L61.79999999999998,1032.5999999999997L52.399999999999984,1033.8999999999996L28.099999999999984,1033.8999999999996L18.69999999999998,1034.6999999999996L4.999999999999982,1037.2999999999995L0.9999999999999822,1037.9999999999995L1.0999999999999823,1036.2999999999995L3.6999999999999824,1026.3999999999994L3.8999999999999826,1023.4999999999994L3.6999999999999824,1020.8999999999994L3.8999999999999826,1019.3999999999994L4.899999999999983,1017.4999999999994L5.099999999999983,1016.7999999999994L5.199999999999982,1015.1999999999994L3.8999999999999826,1013.6999999999994L4.299999999999983,1012.7999999999994L4.499999999999983,1010.6999999999994L5.699999999999983,1007.9999999999993L6.199999999999983,1005.1999999999994L6.799999999999983,1003.5999999999993L13.299999999999983,990.1999999999994L15.599999999999984,987.7999999999994L16.699999999999985,985.1999999999994L18.499999999999986,983.6999999999994L19.499999999999986,981.3999999999994L20.199999999999985,980.3999999999994L21.699999999999985,979.7999999999994L22.399999999999984,979.1999999999994L23.199999999999985,979.0999999999993L24.199999999999985,979.6999999999994L24.899999999999984,980.4999999999993L31.699999999999985,977.7999999999993L32.899999999999984,976.7999999999993L34.19999999999998,975.1999999999992L35.19999999999998,973.4999999999992L37.399999999999984,965.6999999999992L37.499999999999986,964.5999999999992L38.09999999999999,963.7999999999993L41.19999999999999,960.5999999999992L41.999999999999986,959.5999999999992L42.79999999999998,955.2999999999993L42.999999999999986,949.5999999999992L43.29999999999998,948.0999999999992L43.999999999999986,945.6999999999992L44.499999999999986,944.5999999999992L45.79999999999998,942.7999999999993L45.79999999999998,942.0999999999992L45.399999999999984,941.0999999999992L45.499999999999986,939.8999999999992L46.19999999999999,938.1999999999991L46.499999999999986,937.9999999999991L47.899999999999984,937.799999999999L49.399999999999984,937.3999999999991L51.399999999999984,935.5999999999991L53.499999999999986,933.1999999999991L54.09999999999999,931.8999999999992L54.499999999999986,930.4999999999992L54.79999999999998,928.9999999999992L54.899999999999984,927.3999999999992L54.29999999999998,925.7999999999992L53.09999999999998,925.5999999999991L50.59999999999998,926.2999999999992L50.99999999999998,924.9999999999992L52.09999999999998,922.7999999999992L52.59999999999998,921.9999999999992L55.59999999999998,919.2999999999992L55.89999999999998,918.7999999999992L60.49999999999998,907.9999999999992L61.19999999999998,907.0999999999992L62.69999999999998,905.8999999999992L65.49999999999999,901.0999999999992L66.39999999999999,896.4999999999992L66.99999999999999,895.2999999999992L67.99999999999999,893.8999999999992L70.19999999999999,889.8999999999992L73.19999999999999,886.3999999999992L73.39999999999999,885.9999999999992L74.89999999999999,884.6999999999992L75.19999999999999,883.9999999999992L75.79999999999998,881.8999999999992L76.79999999999998,880.2999999999992L77.69999999999999,879.0999999999991L78.49999999999999,877.7999999999992L78.79999999999998,876.0999999999991L78.99999999999999,873.0999999999991L78.69999999999999,871.7999999999992L77.89999999999999,870.1999999999991L77.49999999999999,870.6999999999991L77.69999999999999,871.5999999999991L77.49999999999999,872.5999999999991L77.09999999999998,873.0999999999991L74.89999999999998,874.4999999999991L73.49999999999997,874.3999999999991L72.89999999999998,874.4999999999991L71.99999999999997,875.3999999999991L70.79999999999997,876.9999999999991L69.89999999999996,879.299999999999L69.09999999999997,880.799999999999L68.79999999999997,882.099999999999L68.09999999999997,883.999999999999L67.49999999999997,884.7999999999989L64.59999999999997,887.499999999999L63.69999999999997,886.7999999999989L64.09999999999997,885.6999999999989L65.49999999999997,883.9999999999989L65.79999999999997,882.9999999999989L68.09999999999997,878.6999999999989L71.99999999999997,873.2999999999989L72.29999999999997,872.1999999999989L74.19999999999997,869.899999999999L78.79999999999997,865.999999999999L80.79999999999997,865.2999999999989L83.49999999999997,863.5999999999989L84.29999999999997,862.7999999999989L86.39999999999996,862.5999999999989L87.99999999999996,861.4999999999989L89.29999999999995,859.9999999999989L90.29999999999995,858.4999999999989L92.89999999999995,855.4999999999989L94.59999999999995,852.8999999999988L96.99999999999996,851.0999999999989L97.99999999999996,850.1999999999989L98.49999999999996,848.899999999999L98.99999999999996,848.099999999999L104.69999999999996,843.399999999999L108.09999999999997,839.6999999999989L112.39999999999996,833.0999999999989L113.99999999999996,831.2999999999989L115.99999999999996,829.399999999999L117.19999999999996,828.6999999999989L118.39999999999996,827.9999999999989L119.69999999999996,827.5999999999989L122.39999999999996,827.1999999999989L123.69999999999996,826.399999999999L125.79999999999995,824.7999999999989L125.79999999999995,823.1999999999989L125.99999999999996,822.7999999999989L126.69999999999996,823.0999999999989L133.49999999999997,824.7999999999989L140.09999999999997,827.2999999999989L142.79999999999995,829.2999999999989L144.59999999999997,832.2999999999989L146.79999999999995,834.499999999999L149.69999999999996,835.499999999999L152.29999999999995,835.399999999999L170.09999999999997,830.999999999999L180.29999999999995,830.099999999999L185.49999999999994,830.399999999999L192.39999999999995,831.6999999999989L200.99999999999994,833.9999999999989L206.29999999999995,835.9999999999989L208.89999999999995,836.2999999999988L211.49999999999994,835.6999999999988L231.99999999999994,828.5999999999988L237.09999999999994,827.6999999999988L242.19999999999993,827.3999999999988L247.59999999999994,827.7999999999988L254.99999999999994,829.2999999999988Z" class="sm_state_MAR3469" opacity="1" stroke-opacity="1" stroke-width="1.8900000000000001" stroke-linejoin="round" transform="matrix(0.2864,0,0,0.2864,0,0)" style="-webkit-tap-highlight-color: rgba(0, 0, 0, 0); opacity: 1; cursor: pointer; stroke-opacity: 1; stroke-linejoin: round; fill-opacity: 1;" fill-opacity="1"/><path fill="#88a4bc" stroke="#ffffff" d="M765.5,425.9L759,429.4L753.7,433.4L746.8000000000001,439.5L740.2,444L734.1,450.6L729.7,459.1L724.1,468.20000000000005L717.5,476.70000000000005L711.4,478.70000000000005L706.1999999999999,476.70000000000005L703.9999999999999,470.20000000000005L696.0999999999999,471.20000000000005L688.6999999999999,472.70000000000005L671.6999999999999,472.70000000000005L667.3,473.20000000000005L659.0999999999999,454.50000000000006L657.8999999999999,450.40000000000003L658.4999999999999,447.8L662.5999999999999,441L662.8999999999999,438.9L660.4999999999999,438L656.7999999999998,437.3L655.0999999999998,434.8L653.1999999999998,427.7L652.9999999999998,424.59999999999997L654.6999999999998,419.29999999999995L655.8999999999999,416.9L652.3999999999999,412.29999999999995L647.4999999999999,408.49999999999994L644.0999999999999,407.19999999999993L638.8999999999999,408.3999999999999L636.0999999999999,409.69999999999993L634.0999999999999,413.3999999999999L631.8999999999999,415.19999999999993L628.7999999999998,415.69999999999993L624.0999999999998,415.79999999999995L620.0999999999998,414.29999999999995L615.2999999999998,414.09999999999997L612.6999999999998,416.7L609.9999999999998,421.4L608.1999999999998,425.29999999999995L605.9999999999998,428.59999999999997L599.3999999999997,427.4L597.0999999999998,426.2L594.8999999999997,426.2L592.6999999999997,425.8L587.1999999999997,426.6L583.9999999999997,428.5L581.2999999999996,430.5L578.8999999999996,433.1L568.7999999999996,433.1L565.8999999999996,434.1L563.9999999999997,436.90000000000003L562.6999999999997,440.50000000000006L560.3999999999997,442.70000000000005L557.5999999999998,443.80000000000007L554.1999999999998,441.9000000000001L550.2999999999998,441.80000000000007L545.1999999999998,442.6000000000001L540.9999999999998,445.6000000000001L531.8999999999997,446.00000000000006L528.0999999999998,444.80000000000007L523.6999999999998,445.1000000000001L521.9999999999998,447.6000000000001L520.9999999999998,449.80000000000007L521.1999999999998,452.00000000000006L521.9999999999998,453.6000000000001L520.5999999999998,455.50000000000006L520.0999999999998,457.40000000000003L520.2999999999998,459.40000000000003L520.4999999999999,472.3L521.4999999999999,476.5L523.1999999999999,480.3L523.5999999999999,482.5L521.9999999999999,483.6L519.9999999999999,484.1L517.6999999999999,485.20000000000005L509.19999999999993,481.50000000000006L502.5999999999999,481.90000000000003L496.5999999999999,483.8L493.7999999999999,487.1L492.0999999999999,490.40000000000003L490.7999999999999,490.1L489.6999999999999,488.70000000000005L487.6999999999999,488.80000000000007L482.2999999999999,490.00000000000006L479.0999999999999,491.1000000000001L475.4999999999999,491.50000000000006L472.4999999999999,491.1000000000001L469.5999999999999,491.2000000000001L465.0999999999999,494.4000000000001L461.9999999999999,494.9000000000001L458.9999999999999,493.9000000000001L456.0999999999999,492.6000000000001L452.2999999999999,494.1000000000001L450.6999999999999,496.1000000000001L449.7999999999999,499.1000000000001L446.9999999999999,502.30000000000007L443.6999999999999,501.80000000000007L440.59999999999985,502.70000000000005L437.49999999999983,504.20000000000005L432.8999999999998,508.50000000000006L429.8999999999998,508.70000000000005L427.3999999999998,507.1L425.8999999999998,505.70000000000005L424.1999999999998,505.00000000000006L422.5999999999998,504.6000000000001L418.1999999999998,504.80000000000007L414.0999999999998,502.6000000000001L417.2999999999998,497.80000000000007L418.8999999999998,495.70000000000005L420.0999999999998,494.70000000000005L422.4999999999998,493.90000000000003L423.4999999999998,492.8L424.9999999999998,490.3L426.4999999999998,488.3L427.2999999999998,487.1L427.8999999999998,485.1L430.0999999999998,483.5L430.9999999999998,481.5L433.5999999999998,477.7L433.8999999999998,476.9L434.0999999999998,475.29999999999995L434.3999999999998,473.69999999999993L434.99999999999983,472.29999999999995L435.6999999999998,471.19999999999993L438.6999999999998,468.3999999999999L439.49999999999983,466.3999999999999L442.09999999999985,462.8999999999999L450.1999999999999,453.99999999999994L456.59999999999985,442.69999999999993L460.49999999999983,433.29999999999995L461.09999999999985,430.59999999999997L462.1999999999999,421.4L463.2999999999999,416.59999999999997L463.4999999999999,415.09999999999997L463.1999999999999,413.2L462.4999999999999,412.2L461.5999999999999,411.59999999999997L460.4999999999999,410.4L459.7999999999999,409.2L458.1999999999999,405.59999999999997L457.6999999999999,403.2L457.1999999999999,402.8L455.7999999999999,402.5L455.1999999999999,401.9L454.09999999999985,400L449.59999999999985,396.9L448.29999999999984,396.9L446.79999999999984,396.5L445.89999999999986,395.5L446.09999999999985,392.7L447.39999999999986,390L448.9999999999999,387.4L450.1999999999999,385L450.59999999999985,383.4L450.6999999999999,382.5L449.9999999999999,381.2L450.1999999999999,379.3L449.9999999999999,372.8L453.4999999999999,375.3L455.9999999999999,380L458.2999999999999,382.3L461.1999999999999,382.3L464.7999999999999,380.40000000000003L467.1999999999999,378.50000000000006L473.4999999999999,378.90000000000003L480.7999999999999,378.50000000000006L486.5999999999999,381.00000000000006L493.69999999999993,381.20000000000005L498.3999999999999,380.40000000000003L501.0999999999999,379.20000000000005L503.69999999999993,377.00000000000006L510.0999999999999,373.00000000000006L512.6999999999999,372.20000000000005L514.4,373.30000000000007L515.5,375.1000000000001L515.8,377.6000000000001L517,378.80000000000007L518.6,378.70000000000005L522.1,377.90000000000003L526.6,377.40000000000003L541.4,377.3L550,374.7L553.6,373.2L558.8000000000001,374L561.8000000000001,373.8L564.5000000000001,371.7L567.3000000000001,367L570.7,363L574.8000000000001,359.7L579.1,357.5L582.2,356.9L584.6,355.2L605.9,345.09999999999997L609.5,342.09999999999997L611.7,339.49999999999994L613.5,338.29999999999995L614.7,337.29999999999995L617.3000000000001,338.79999999999995L619.5000000000001,340.49999999999994L623.4000000000001,341.29999999999995L627.3000000000001,342.69999999999993L633.2,342.79999999999995L638.6,341.29999999999995L642,338.4L644.9,333.79999999999995L658.6999999999999,327.99999999999994L661.8,327.29999999999995L665.9,324.49999999999994L685.3,314.79999999999995L697.4,306.4L700.9,301.79999999999995L710.1,298.9L714.5,301.2L715.5,305.9L712.4,311.4L706.6999999999999,318.4L705.3,323.2L707.9,324.2L711.3,324.4L715.9,323.2L719.1,324L722.9,325.4L725.9,328.59999999999997L735.4,335.29999999999995L737.9,339.79999999999995L736.6,347.9L732.2,361.79999999999995L731.8000000000001,366.4L732.3000000000001,370L730.4000000000001,375.1L728.8000000000001,376.70000000000005L728.5000000000001,379.30000000000007L728.7000000000002,382.70000000000005L730.6000000000001,384.20000000000005L732.7000000000002,386.6L733.8000000000002,389.3L736.0000000000002,392.5L738.4000000000002,395.2L738.2000000000002,398.8L737.0000000000001,401.90000000000003L737.5000000000001,406.40000000000003L741.1000000000001,409.50000000000006L744.3000000000002,410.80000000000007L749.3000000000002,414.9000000000001L765.5000000000002,425.9000000000001Z" class="sm_state_MAR1455" opacity="1" stroke-opacity="1" stroke-width="1.8900000000000001" stroke-linejoin="round" transform="matrix(0.2864,0,0,0.2864,0,0)" style="-webkit-tap-highlight-color: rgba(0, 0, 0, 0); opacity: 1; cursor: pointer; stroke-opacity: 1; stroke-linejoin: round; fill-opacity: 1;" fill-opacity="1"/><path fill="#88a4bc" stroke="#ffffff" d="M310.6,725.7L310.3,726.1L309.1,731L309.1,734.5L307.8,737.2L306,744.2L303.5,750.4000000000001L301.6,758.8000000000001L299.70000000000005,765.7L297.20000000000005,776.7L294.70000000000005,787L291.6,796.7L289.1,802.9000000000001L287.20000000000005,806.3000000000001L282.90000000000003,810.5000000000001L279.1,813.2000000000002L274.8,816.7000000000002L269.8,820.1000000000001L262.90000000000003,824.2000000000002L257.3,827.7000000000002L255,829.3000000000002L247.6,827.8000000000002L242.2,827.4000000000002L237.1,827.7000000000002L232,828.6000000000001L211.5,835.7000000000002L208.9,836.3000000000002L206.3,836.0000000000002L201,834.0000000000002L192.4,831.7000000000003L185.5,830.4000000000003L180.3,830.1000000000004L170.10000000000002,831.0000000000003L152.3,835.4000000000003L149.70000000000002,835.5000000000003L146.8,834.5000000000003L144.60000000000002,832.3000000000003L142.8,829.3000000000003L140.10000000000002,827.3000000000003L133.50000000000003,824.8000000000003L126.70000000000003,823.1000000000003L126.00000000000003,822.8000000000003L126.80000000000003,821.2000000000003L128.20000000000002,819.3000000000003L129.70000000000002,818.1000000000003L131.3,817.2000000000003L132.5,816.3000000000003L133.3,814.9000000000003L133.9,810.4000000000003L135.4,806.4000000000003L135.9,803.2000000000003L136.8,801.2000000000003L137,800.3000000000003L136.5,797.0000000000003L137,795.9000000000003L136.5,795.5000000000003L136.9,794.5000000000003L137.4,792.3000000000003L137.20000000000002,790.1000000000003L136.70000000000002,788.6000000000003L136.50000000000003,787.7000000000003L136.60000000000002,781.6000000000003L136.10000000000002,779.9000000000002L138.00000000000003,771.9000000000002L138.50000000000003,770.8000000000002L140.40000000000003,763.8000000000002L143.20000000000005,759.7000000000002L144.60000000000005,758.4000000000002L146.40000000000006,753.8000000000002L146.80000000000007,750.7000000000002L147.60000000000008,749.1000000000001L147.9000000000001,746.9000000000001L150.4000000000001,740.5000000000001L155.10000000000008,733.8000000000001L156.80000000000007,730.7L157.10000000000008,729.8000000000001L157.30000000000007,728.4000000000001L158.30000000000007,725.3000000000001L158.80000000000007,724.4000000000001L158.60000000000008,723.3000000000001L159.20000000000007,719.3000000000001L158.40000000000006,716.2L159.10000000000005,714.8000000000001L160.10000000000005,711.9000000000001L163.60000000000005,707.4000000000001L164.20000000000005,706.9000000000001L167.10000000000005,706.3000000000001L170.50000000000006,704.4000000000001L175.70000000000005,699.3000000000001L176.60000000000005,698.1L177.20000000000005,696.9L177.90000000000003,695.9L179.40000000000003,695.3L186.30000000000004,694.5L187.50000000000003,694L194.00000000000003,690.6L205.30000000000004,682.4L212.90000000000003,677.4L216.60000000000002,673.1999999999999L220.40000000000003,665.5999999999999L221.60000000000002,661.8L222.90000000000003,656.1999999999999L224.70000000000005,652.0999999999999L226.50000000000006,643.1999999999999L227.70000000000005,640.5999999999999L232.80000000000004,632.8999999999999L232.40000000000003,631.3999999999999L233.30000000000004,630.9999999999999L236.60000000000005,622.9999999999999L238.70000000000005,615.7999999999998L238.80000000000004,614.2999999999998L239.10000000000005,612.9999999999999L240.30000000000004,610.2999999999998L240.60000000000005,608.7999999999998L240.90000000000006,607.4999999999999L241.60000000000005,606.7999999999998L243.50000000000006,605.8999999999999L245.50000000000006,604.1999999999998L247.80000000000007,603.3999999999999L248.80000000000007,602.1999999999998L251.50000000000006,597.8999999999999L252.90000000000006,592.7999999999998L253.60000000000005,591.2999999999998L254.60000000000005,590.2999999999998L255.80000000000004,589.5999999999998L261.70000000000005,587.2999999999998L273.00000000000006,585.3999999999999L282.00000000000006,585.5999999999999L293.20000000000005,581.8999999999999L310.30000000000007,578.8999999999999L310.9000000000001,578.3999999999999L312.30000000000007,576.9999999999999L313.70000000000005,576.4999999999999L327.70000000000005,570.3999999999999L327.80000000000007,570.5999999999999L332.50000000000006,580.1999999999999L335.20000000000005,584.3L342.00000000000006,596.9L342.6000000000001,600.1L334.7000000000001,603.7L326.6000000000001,608.8000000000001L325.80000000000007,609.1L318.6000000000001,615.2L312.00000000000006,624.7L304.50000000000006,647.3000000000001L297.70000000000005,661.9000000000001L294.6,666.6000000000001L283.70000000000005,677.9000000000001L281.1,682.5000000000001L279.1,687.8000000000001L278.40000000000003,690.5000000000001L278.00000000000006,693.4000000000001L278.30000000000007,695.9000000000001L279.1000000000001,698.3000000000001L283.00000000000006,709.3000000000001L286.30000000000007,725.9000000000001L310.6000000000001,725.7Z" class="sm_state_MAR3456" opacity="1" stroke-opacity="1" stroke-width="1.8900000000000001" stroke-linejoin="round" transform="matrix(0.2864,0,0,0.2864,0,0)" style="-webkit-tap-highlight-color: rgba(0, 0, 0, 0); opacity: 1; cursor: pointer; stroke-opacity: 1; stroke-linejoin: round; fill-opacity: 1;" fill-opacity="1"/><path fill="#88a4bc" stroke="#ffffff" d="M866,316.3L866.1,312.3L866.6,308.5L864.1,306.6L861.1,299.8L860.5,295.1L860.6,288.90000000000003L861.8000000000001,285.3L859.3000000000001,284.6L856.4000000000001,284.8L853.5000000000001,285.40000000000003L850.7000000000002,284.70000000000005L848.6000000000001,283.80000000000007L845.6000000000001,283.00000000000006L843.1000000000001,283.00000000000006L841.3000000000002,284.20000000000005L838.6000000000001,285.50000000000006L835.0000000000001,286.30000000000007L833.4000000000001,285.4000000000001L832.6000000000001,282.7000000000001L830.3000000000002,280.4000000000001L829.5000000000002,277.30000000000007L826.9000000000002,275.70000000000005L826.0000000000002,271.90000000000003L823.3000000000002,266.40000000000003L819.2000000000002,260.3L817.5000000000001,256.90000000000003L813.7000000000002,251.00000000000003L814.9000000000002,248.00000000000003L816.4000000000002,245.30000000000004L819.4000000000002,241.00000000000003L822.3000000000002,235.80000000000004L833.8000000000002,220.40000000000003L838.7000000000002,216.10000000000002L842.0000000000001,215.3L845.4000000000001,215L849.1000000000001,215.4L856.2000000000002,215L874.0000000000001,211.5L877.5000000000001,209.6L880.7000000000002,206.9L879.9000000000002,202.70000000000002L877.2000000000002,197.10000000000002L870.5000000000001,189.8L862.7000000000002,184.3L861.3000000000002,182L862.4000000000002,180L869.1000000000003,173.6L872.3000000000003,169L872.9000000000003,166.2L871.7000000000003,165L869.7000000000003,163.9L864.0000000000002,151.8L863.0000000000002,148L863.4000000000002,145.8L869.2000000000002,143.10000000000002L870.9000000000002,140.50000000000003L871.8000000000002,136.70000000000002L870.2000000000002,132.4L869.2000000000002,128.20000000000002L865.3000000000002,122.90000000000002L863.9000000000002,120.20000000000002L864.0000000000002,117.40000000000002L864.5000000000002,116.50000000000001L865.4000000000002,115.50000000000001L870.0000000000002,112.40000000000002L870.8000000000002,110.70000000000002L871.8000000000002,110.10000000000002L872.1000000000001,109.20000000000002L873.6000000000001,104.10000000000002L873.6000000000001,102.70000000000002L874.5000000000001,101.60000000000002L876.1000000000001,101.10000000000002L877.5000000000001,101.20000000000002L878.5000000000001,101.50000000000001L879.3000000000001,100.80000000000001L878.5000000000001,99.20000000000002L878.0000000000001,95.80000000000001L877.0000000000001,94.20000000000002L863.7000000000002,88.90000000000002L859.1000000000001,89.20000000000002L856.9000000000001,91.10000000000002L855.5000000000001,93.10000000000002L853.4000000000001,95.70000000000002L844.2,102.80000000000001L842.1,102.9L839,100L837.2,99.1L836.6,97.5L836.5,96L837,94.6L838.1,93.39999999999999L838.2,91.69999999999999L838.7,89.49999999999999L838.9000000000001,87.39999999999999L837.9000000000001,83.99999999999999L833.0000000000001,82.29999999999998L830.5000000000001,81.69999999999999L827.3000000000001,79.49999999999999L825.5000000000001,77.19999999999999L824.6000000000001,62.09999999999999L825.3000000000002,59.399999999999984L824.8000000000002,56.09999999999999L826.9000000000002,55.899999999999984L828.3000000000002,55.19999999999998L828.9000000000002,53.899999999999984L829.4000000000002,51.79999999999998L830.8000000000002,50.399999999999984L832.4000000000002,49.69999999999998L834.0000000000002,49.899999999999984L835.3000000000002,50.79999999999998L837.9000000000002,53.19999999999998L839.2000000000002,54.09999999999998L843.9000000000002,54.79999999999998L845.5000000000002,55.79999999999998L847.8000000000002,55.79999999999998L850.3000000000002,56.79999999999998L853.5000000000002,57.09999999999998L856.2000000000003,56.49999999999998L863.9000000000003,53.69999999999998L865.2000000000003,52.899999999999984L868.1000000000003,49.899999999999984L869.3000000000003,49.499999999999986L870.5000000000003,49.999999999999986L871.3000000000003,49.899999999999984L873.3000000000003,47.899999999999984L875.7000000000003,41.79999999999998L877.3000000000003,39.499999999999986L877.2000000000003,38.69999999999999L877.5000000000002,37.999999999999986L878.1000000000003,37.79999999999998L878.8000000000003,38.19999999999998L879.1000000000003,38.79999999999998L878.8000000000003,40.09999999999998L879.0000000000003,40.99999999999998L878.4000000000003,43.39999999999998L879.4000000000003,46.699999999999974L878.2000000000003,47.89999999999998L878.4000000000003,50.09999999999998L879.7000000000003,51.49999999999998L881.5000000000002,50.799999999999976L882.4000000000002,52.09999999999997L881.9000000000002,52.699999999999974L881.6000000000003,53.89999999999998L881.5000000000002,55.199999999999974L881.7000000000003,57.699999999999974L882.0000000000002,58.699999999999974L883.5000000000002,60.699999999999974L885.1000000000003,61.89999999999998L887.3000000000003,62.59999999999998L891.8000000000003,63.09999999999998L889.1000000000003,60.79999999999998L884.3000000000003,55.29999999999998L883.4000000000003,53.69999999999998L883.7000000000003,53.09999999999998L884.5000000000002,53.79999999999998L887.6000000000003,57.09999999999998L888.1000000000003,57.89999999999998L891.0000000000002,60.99999999999998L893.7000000000003,62.49999999999998L896.9000000000003,63.69999999999998L903.4000000000003,64.59999999999998L906.2000000000003,64.29999999999998L907.7000000000003,63.899999999999984L908.8000000000003,63.29999999999998L910.1000000000003,61.79999999999998L911.3000000000003,60.79999999999998L912.5000000000003,60.499999999999986L918.5000000000003,62.79999999999998L919.9000000000003,63.09999999999998L921.4000000000003,63.59999999999998L923.0000000000003,64.49999999999999L924.7000000000004,65.09999999999998L924.7000000000004,68.09999999999998L925.3000000000004,70.09999999999998L926.5000000000005,71.59999999999998L928.4000000000004,72.39999999999998L930.7000000000004,74.09999999999998L932.6000000000004,75.89999999999998L934.7000000000004,77.29999999999998L937.5000000000003,77.49999999999999L938.3000000000003,78.09999999999998L938.7000000000003,80.09999999999998L939.0000000000002,81.09999999999998L939.8000000000002,82.19999999999997L943.1000000000001,84.19999999999997L945.2000000000002,86.29999999999997L951.8000000000002,90.39999999999996L952.9000000000002,91.59999999999997L952.7000000000002,92.19999999999996L951.9000000000002,92.79999999999995L950.4000000000002,96.19999999999996L947.1000000000003,101.29999999999995L946.6000000000003,102.59999999999995L954.1000000000003,110.39999999999995L956.4000000000002,111.09999999999995L957.1000000000003,111.49999999999996L950.4000000000002,119.59999999999995L952.8000000000002,122.39999999999995L954.4000000000002,125.79999999999995L958.9000000000002,139.69999999999996L959.2000000000002,141.69999999999996L959.0000000000001,143.19999999999996L956.1000000000001,155.39999999999995L955.9000000000001,158.89999999999995L956.5000000000001,162.59999999999994L957.1000000000001,164.79999999999993L957.1000000000001,165.59999999999994L956.6000000000001,166.69999999999993L954.6000000000001,168.89999999999992L954.4000000000001,170.0999999999999L954.7,171.2999999999999L955.7,171.8999999999999L957.9000000000001,172.6999999999999L959.0000000000001,173.49999999999991L959.6000000000001,174.39999999999992L962.4000000000001,181.19999999999993L962.7,183.69999999999993L961.9000000000001,185.69999999999993L961.0000000000001,187.09999999999994L959.8000000000001,191.29999999999993L959.0000000000001,193.19999999999993L958.3000000000001,195.09999999999994L958.3000000000001,202.39999999999995L958.9000000000001,204.89999999999995L962.1000000000001,207.89999999999995L963.2000000000002,210.09999999999994L964.0000000000001,212.39999999999995L965.3000000000001,214.29999999999995L966.9000000000001,215.79999999999995L968.8000000000001,217.09999999999997L969.8000000000001,218.09999999999997L970.2,219.69999999999996L970.2,221.39999999999995L969.8000000000001,223.79999999999995L969.2,225.09999999999997L968.8000000000001,225.59999999999997L966.1,227.49999999999997L974.6,241.79999999999998L976.6,243.49999999999997L980.6,244.99999999999997L998,258.5L999,260.2L995.4,264.2L993.3,265.8L991,266.8L988.4,267.1L987.4,267.70000000000005L986.4,269.00000000000006L985.8,270.30000000000007L984.9,273.00000000000006L983.8,280.6000000000001L983.6999999999999,281.9000000000001L983.3,282.6000000000001L981.9,283.9000000000001L981.6999999999999,284.30000000000007L981.9,285.50000000000006L983,285.50000000000006L985.3,284.6000000000001L986.5,284.6000000000001L987.8,285.00000000000006L988.8,285.90000000000003L989.0999999999999,287.40000000000003L987.8999999999999,290.1L985.3999999999999,290.6L960.2999999999998,289.5L918.8999999999999,287.5L906.2999999999998,286.9L895.0999999999998,290.09999999999997L883.4999999999998,290.99999999999994L879.8999999999997,293.09999999999997L884.1999999999997,304.59999999999997L886.8999999999997,311.79999999999995L875.8999999999997,313.29999999999995L865.9999999999998,316.29999999999995Z" class="sm_state_MAR1454" opacity="1" stroke-opacity="1" stroke-width="1.8900000000000001" stroke-linejoin="round" transform="matrix(0.2864,0,0,0.2864,0,0)" style="-webkit-tap-highlight-color: rgba(0, 0, 0, 0); opacity: 1; cursor: pointer; stroke-opacity: 1; stroke-linejoin: round; fill-opacity: 1;" fill-opacity="1"/><path fill="#88a4bc" stroke="#ffffff" d="M667.3,473.2L663,473.7L653.8,476.2L645.0999999999999,477.2L639.8,482.2L628.9,477.7L621.9,477.2L617.1,477.7L610.2,480.7L604.5,486.7L597.4,486.3L596.1,486.8L594.7,487L593.3000000000001,486.9L590.6,486.4L587.6,486.29999999999995L585.5,487.29999999999995L581.7,491.19999999999993L580.7,491.8999999999999L577.7,493.49999999999994L573.9000000000001,497.09999999999997L567.3000000000001,501.59999999999997L561.6,506.99999999999994L559.5,508.49999999999994L552.5,511.59999999999997L548.2,514.5L544.1,518.5L543.1,519.1L540.9,520.1L539.9,520.9L537.8,524.6999999999999L537,525.4999999999999L534.2,527.0999999999999L531.4000000000001,529.3999999999999L523.4000000000001,533.6999999999998L522.2,534.6999999999998L521.5,536.0999999999998L521.3,537.9999999999998L521.3,609.1999999999998L512.9,609.1999999999998L512.8,609.2999999999998L513.0999999999999,612.4999999999999L514.8999999999999,618.3999999999999L515.5999999999999,623.2999999999998L514.6999999999999,626.3999999999999L513.8,630.3999999999999L514.1999999999999,634.0999999999999L515.5999999999999,638.0999999999999L516.8999999999999,642.3L516.8999999999999,645.0999999999999L514.2999999999998,647.1999999999999L508.39999999999986,648.4L501.39999999999986,649.4L496.1999999999999,649.4L488.4999999999999,648.6999999999999L483.6999999999999,648.8L479.39999999999986,648.8L475.6999999999999,649.5L471.09999999999985,652.2L465.89999999999986,656.3000000000001L459.39999999999986,662.0000000000001L455.59999999999985,665.4000000000001L450.39999999999986,666.2L445.29999999999984,666.2L440.1999999999998,663.4000000000001L436.99999999999983,662.0000000000001L434.8999999999998,662.1000000000001L431.3999999999998,664.1000000000001L427.1999999999998,665.4000000000001L423.29999999999984,665.4000000000001L416.89999999999986,662.6000000000001L409.09999999999985,658.5000000000001L404.59999999999985,656.3000000000001L398.1999999999999,655.7L391.6999999999999,654.3000000000001L387.1999999999999,655.0000000000001L381.39999999999986,655.0000000000001L373.6999999999999,657.8000000000001L367.1999999999999,659.8000000000001L360.09999999999985,662.0000000000001L352.09999999999985,663.9000000000001L353.99999999999983,670.2L356.79999999999984,673.6L356.79999999999984,677.8000000000001L355.49999999999983,681.4000000000001L351.59999999999985,684.8000000000001L347.1999999999999,689.3000000000001L344.59999999999985,692.7L342.09999999999985,697.6L340.09999999999985,700.4L336.79999999999984,704.9L333.89999999999986,710.6L332.89999999999986,714.2L331.6999999999999,718.3000000000001L329.4999999999999,719.5000000000001L321.5999999999999,720.6000000000001L316.5999999999999,722.0000000000001L312.19999999999993,723.3000000000001L310.5999999999999,725.7L286.2999999999999,725.9000000000001L282.9999999999999,709.3000000000001L279.0999999999999,698.3000000000001L278.2999999999999,695.9000000000001L277.9999999999999,693.4000000000001L278.39999999999986,690.5000000000001L279.09999999999985,687.8000000000001L281.09999999999985,682.5000000000001L283.6999999999999,677.9000000000001L294.59999999999985,666.6000000000001L297.6999999999999,661.9000000000001L304.4999999999999,647.3000000000001L311.9999999999999,624.7L318.5999999999999,615.2L325.7999999999999,609.1L326.5999999999999,608.8000000000001L334.69999999999993,603.7L342.5999999999999,600.1L341.9999999999999,596.9L335.1999999999999,584.3L332.4999999999999,580.1999999999999L327.7999999999999,570.5999999999999L327.6999999999999,570.3999999999999L346.1999999999999,562.1999999999998L348.2999999999999,560.5999999999998L349.7999999999999,558.5999999999998L352.1999999999999,554.3999999999997L354.2999999999999,552.3999999999997L355.1999999999999,551.1999999999997L355.59999999999985,549.7999999999997L356.1999999999999,548.6999999999997L359.89999999999986,546.0999999999997L362.79999999999984,542.4999999999997L363.29999999999984,541.4999999999997L365.89999999999986,539.8999999999996L366.39999999999986,539.2999999999996L367.1999999999999,537.8999999999996L369.39999999999986,536.0999999999997L370.79999999999984,533.6999999999997L372.59999999999985,531.7999999999997L373.59999999999985,531.1999999999997L391.39999999999986,521.9999999999997L395.59999999999985,519.0999999999997L400.6999999999999,516.4999999999997L403.1999999999999,514.8999999999996L410.7999999999999,507.5999999999996L414.0999999999999,502.5999999999996L418.19999999999993,504.7999999999996L422.5999999999999,504.5999999999996L424.19999999999993,504.9999999999996L425.8999999999999,505.6999999999996L427.3999999999999,507.09999999999957L429.8999999999999,508.6999999999996L432.8999999999999,508.4999999999996L437.49999999999994,504.1999999999996L440.59999999999997,502.6999999999996L443.7,501.7999999999996L447,502.2999999999996L449.8,499.0999999999996L450.7,496.0999999999996L452.3,494.0999999999996L456.1,492.5999999999996L459,493.89999999999964L462,494.89999999999964L465.1,494.39999999999964L469.6,491.19999999999965L472.5,491.0999999999996L475.5,491.4999999999996L479.1,491.0999999999996L482.3,489.9999999999996L487.7,488.7999999999996L489.7,488.6999999999996L490.8,490.09999999999957L492.1,490.3999999999996L493.8,487.09999999999957L496.6,483.79999999999956L502.6,481.8999999999996L509.20000000000005,481.4999999999996L517.7,485.1999999999996L520,484.09999999999957L522,483.59999999999957L523.6,482.49999999999955L523.2,480.29999999999956L521.5,476.49999999999955L520.5,472.29999999999956L520.3,459.3999999999996L520.0999999999999,457.3999999999996L520.5999999999999,455.4999999999996L521.9999999999999,453.5999999999996L521.1999999999999,451.9999999999996L520.9999999999999,449.7999999999996L521.9999999999999,447.5999999999996L523.6999999999999,445.0999999999996L528.0999999999999,444.7999999999996L531.8999999999999,445.9999999999996L540.9999999999999,445.5999999999996L545.1999999999999,442.5999999999996L550.3,441.7999999999996L554.1999999999999,441.89999999999964L557.5999999999999,443.7999999999996L560.3999999999999,442.6999999999996L562.6999999999998,440.4999999999996L563.9999999999998,436.8999999999996L565.8999999999997,434.09999999999957L568.7999999999997,433.09999999999957L578.8999999999997,433.09999999999957L581.2999999999997,430.49999999999955L583.9999999999998,428.49999999999955L587.1999999999998,426.59999999999957L592.6999999999998,425.79999999999956L594.8999999999999,426.19999999999953L597.0999999999999,426.19999999999953L599.3999999999999,427.3999999999995L605.9999999999999,428.5999999999995L608.1999999999999,425.2999999999995L609.9999999999999,421.3999999999995L612.6999999999999,416.69999999999953L615.3,414.0999999999995L620.0999999999999,414.2999999999995L624.0999999999999,415.7999999999995L628.8,415.6999999999995L631.9,415.1999999999995L634.1,413.39999999999947L636.1,409.6999999999995L638.9,408.39999999999947L644.1,407.1999999999995L647.5,408.4999999999995L652.4,412.2999999999995L655.9,416.8999999999995L654.6999999999999,419.2999999999995L652.9999999999999,424.5999999999995L653.1999999999999,427.69999999999953L655.0999999999999,434.79999999999956L656.8,437.29999999999956L660.5,437.99999999999955L662.9,438.8999999999995L662.6,440.99999999999955L658.5,447.79999999999956L657.9,450.3999999999996L659.1,454.4999999999996L667.3000000000001,473.1999999999996Z" class="sm_state_MAR3457" opacity="1" stroke-opacity="1" stroke-width="1.8900000000000001" stroke-linejoin="round" transform="matrix(0.2864,0,0,0.2864,0,0)" style="-webkit-tap-highlight-color: rgba(0, 0, 0, 0); opacity: 1; cursor: pointer; stroke-opacity: 1; stroke-linejoin: round; fill-opacity: 1;" fill-opacity="1"/><desc style="-webkit-tap-highlight-color: rgba(0, 0, 0, 0);">Created with Raphal 2.1.0</desc><defs style="-webkit-tap-highlight-color: rgba(0, 0, 0, 0);"/></svg>